<svg width="16" height="16" viewBox="0 0 16 16" fill="none" xmlns="http://www.w3.org/2000/svg">
<path d="M6.14075 12.2516C5.53573 11.7646 5.35909 10.7413 5.61118 10C6.04825 10.4674 6.65387 10.6155 7.28116 10.699C8.24955 10.828 9.20061 10.7798 10.1002 10.39C10.2031 10.3454 10.2982 10.2861 10.4107 10.226C10.4951 10.4416 10.5171 10.6593 10.4876 10.8809C10.4159 11.4205 10.1109 11.8373 9.62585 12.1533C9.43188 12.2797 9.22663 12.3927 9.0263 12.5119C8.41086 12.8782 8.24436 13.3076 8.47561 13.9323C8.48111 13.9476 8.48603 13.9629 8.49845 14C8.18423 13.8761 7.9547 13.6958 7.7798 13.4587C7.59509 13.2086 7.50721 12.9318 7.50259 12.6323C7.50027 12.4866 7.50027 12.3396 7.47802 12.1959C7.42367 11.8456 7.23693 11.6888 6.88512 11.6797C6.52407 11.6705 6.23847 11.867 6.16273 12.1765C6.15695 12.2003 6.14914 12.224 6.14075 12.2516Z" fill="#BB9AF7"/>
<path d="M3 10C3 10 4.68741 9.19836 6.37953 9.19836L7.65533 5.34782C7.70309 5.16161 7.84255 5.03506 8 5.03506C8.15745 5.03506 8.29691 5.16161 8.34468 5.34782L9.62048 9.19836C11.6245 9.19836 13 10 13 10C13 10 10.1338 2.3854 10.1282 2.37012C10.0459 2.14499 9.90706 2 9.71984 2H6.28046C6.09323 2 5.95996 2.14499 5.8721 2.37012C5.8659 2.38511 3 10 3 10Z" fill="#BB9AF7"/>
</svg>
