<svg width="16" height="16" viewBox="0 0 16 16" fill="none" xmlns="http://www.w3.org/2000/svg">
<path d="M3.95007 13.4462C3.04253 13.3031 2.31584 12.6318 2.08471 11.7231C2.01756 11.4588 2.02218 10.9106 2.09366 10.6611C2.25795 10.0872 2.60264 9.65223 3.11863 9.36738L3.23592 9.30262L3.22831 9.10013C3.20786 8.55757 3.41348 7.92236 3.75474 7.47322C4.07422 7.05272 4.55693 6.71042 5.0492 6.55523C5.8399 6.30589 6.64582 6.41676 7.35102 6.87187C7.43488 6.92603 7.61961 7.08764 7.76155 7.23118L8.01962 7.49217L8.14845 7.42696C8.6779 7.15852 9.34146 7.143 9.87782 7.38622C10.585 7.70689 11.0559 8.41731 11.0559 9.16354V9.34947L11.2152 9.44408C11.9011 9.85159 12.2859 10.6562 12.1816 11.4651C12.1133 11.9957 11.9013 12.4287 11.5266 12.8034C11.2248 13.1053 10.9061 13.2879 10.4725 13.4074L10.2469 13.4696L7.19867 13.4737C4.74316 13.477 4.11137 13.4716 3.95007 13.4462ZM7.21344 12.4147C7.80672 12.2949 8.34709 11.855 8.61449 11.2738C8.76833 10.9395 8.79256 10.821 8.79114 10.41C8.78995 10.0769 8.78441 10.0297 8.72427 9.84711C8.59528 9.45541 8.42236 9.17951 8.14462 8.92241C7.75433 8.56101 7.30566 8.38925 6.75311 8.38955C5.94734 8.39015 5.2581 8.83228 4.91386 9.56942C4.78673 9.84189 4.74838 10.0024 4.73226 10.3285C4.70391 10.907 4.89222 11.4169 5.28526 11.8253C5.79723 12.3574 6.47318 12.564 7.21344 12.4147ZM6.6697 12.1488C6.55644 12.057 6.62881 11.8638 6.77654 11.8638C6.87039 11.8638 6.9368 11.9335 6.9368 12.0318C6.9368 12.1163 6.86099 12.1921 6.77654 12.1921C6.74714 12.1921 6.69909 12.1725 6.6697 12.1488ZM7.29104 11.2993C7.24702 11.2866 7.07781 11.142 6.85144 10.9242L6.48348 10.5699V10.0368C6.48348 9.5142 6.48452 9.50271 6.5363 9.45422C6.62001 9.37573 6.70984 9.35081 6.81026 9.37782C6.98111 9.42378 6.98678 9.44183 6.99484 9.97275L7.002 10.4452L7.28014 10.7267C7.56985 11.02 7.61539 11.0959 7.56169 11.1962C7.53738 11.2415 7.4028 11.3306 7.37102 11.3223C7.36639 11.3211 7.33058 11.3108 7.29104 11.2993ZM5.04114 10.5269C4.98056 10.4599 4.98593 10.3424 5.05189 10.2891C5.1253 10.2296 5.20841 10.2349 5.2769 10.3033C5.34734 10.3737 5.34972 10.4311 5.28586 10.5123C5.22513 10.5896 5.10441 10.5968 5.04114 10.5269ZM8.26724 10.5123C8.2405 10.4783 8.21864 10.4322 8.21864 10.41C8.21864 10.3876 8.2405 10.3416 8.26724 10.3076C8.3603 10.1893 8.55473 10.2558 8.55473 10.4059C8.55473 10.5674 8.36556 10.6372 8.26724 10.5123ZM6.6591 8.90898C6.59852 8.84213 6.60389 8.72455 6.6697 8.67113C6.77967 8.58204 6.9368 8.65084 6.9368 8.78812C6.9368 8.88645 6.87039 8.95613 6.77654 8.95613C6.73147 8.95613 6.68492 8.93748 6.6591 8.90898ZM12.243 9.6291C12.1141 9.42378 11.8424 9.11505 11.6593 8.96613C11.585 8.90555 11.5199 8.83378 11.5148 8.80647C11.3818 8.10008 11.1156 7.5808 10.6653 7.14911C10.1616 6.66625 9.59663 6.41288 8.88257 6.34961L8.57342 6.32231L8.63968 6.2265C8.73422 6.08967 9.00427 5.83601 9.1638 5.73394C9.45537 5.54742 9.86664 5.41253 10.2497 5.37776L10.4217 5.36224L10.4345 6.20785L11.9475 4.92444L10.4345 3.6261L10.411 4.48932L10.1883 4.50753C9.40367 4.57214 8.6403 4.90788 8.12374 5.41552C7.91564 5.61994 7.78392 5.79393 7.65225 6.03804C7.60042 6.13414 7.55102 6.21248 7.54247 6.21218C7.53396 6.21188 7.45309 6.16369 7.36281 6.10489C7.03244 5.89002 6.57629 5.70365 6.1552 5.61144C5.99583 5.57667 5.85631 5.56787 5.45999 5.56787H4.96415L4.97564 5.4858C5.05263 4.93369 5.40717 4.38756 5.87929 4.0939C6.48094 3.71981 7.2127 3.67743 7.82335 3.98139L8.00255 4.07047L8.18364 3.87425C8.4231 3.61462 8.62771 3.45301 8.89863 3.30917C9.14919 3.17606 9.40723 3.08355 9.67036 3.03236C9.9035 2.987 10.3824 2.9882 10.6246 3.03475C11.4299 3.18934 12.1127 3.69236 12.4798 4.40188C12.6867 4.80163 12.767 5.11529 12.781 5.57965L12.7899 5.87271L12.9403 5.95732C13.4152 6.22441 13.729 6.59254 13.8972 7.08033C13.9713 7.29535 13.974 7.31594 13.9745 7.67824C13.975 8.12141 13.9458 8.26064 13.7775 8.61622C13.5307 9.13729 13.0839 9.53778 12.5315 9.73326L12.3489 9.79787L12.243 9.6291Z" fill="#27A1B9"/>
</svg>
