<svg width="16" height="16" viewBox="0 0 16 16" fill="none" xmlns="http://www.w3.org/2000/svg">
<path d="M11.667 9.333H6L7.333 6H9.533L10 5H8L7.333 4L8 3H10L9.533 2H7.333L5.867 4L6.467 5L2.467 10C2.17562 10.3845 2.01227 10.8507 2 11.333C2 12.333 2.733 13.2 3.667 13.333C3.667 13.333 10.667 14 11.667 14C12.933 14 14 12.933 14 11.667C14 10.4 12.933 9.333 11.667 9.333ZM4 12.333C3.467 12.333 3 11.867 3 11.333C3 10.8 3.467 10.333 4 10.333C4.533 10.333 5 10.8 5 11.333C5 11.867 4.533 12.333 4 12.333ZM11.667 13C10.933 13 10.333 12.4 10.333 11.667C10.333 10.933 10.933 10.333 11.667 10.333C12.4 10.333 13 10.933 13 11.667C13 12.4 12.4 13 11.667 13Z" fill="#27A1B9"/>
</svg>
