<svg width="16" height="16" viewBox="0 0 16 16" fill="none" xmlns="http://www.w3.org/2000/svg">
<path d="M10.0385 3.31003L9.64251 3.74059L10.0385 3.31003ZM13.415 8.46535C13.415 10.9561 11.0211 13.415 8 13.415V14.585C11.6064 14.585 14.585 11.6615 14.585 8.46535H13.415ZM8 13.415C4.97895 13.415 2.585 10.9561 2.585 8.46535H1.415C1.415 11.6615 4.39363 14.585 8 14.585V13.415ZM2.585 8.46535C2.585 7.66141 2.98476 6.94723 3.69721 6.17561C4.43111 5.38074 5.35545 4.66229 6.35749 3.74059L5.56541 2.87947C4.66524 3.70747 3.60885 4.54658 2.83759 5.38191C2.04486 6.24048 1.415 7.2291 1.415 8.46535H2.585ZM9.64251 3.74059C10.6446 4.66229 11.5689 5.38074 12.3028 6.17561C13.0152 6.94723 13.415 7.66141 13.415 8.46535H14.585C14.585 7.2291 13.9551 6.24048 13.1624 5.38191C12.3911 4.54658 11.3348 3.70747 10.4346 2.87947L9.64251 3.74059ZM6.35749 3.74059C6.76342 3.3672 7.36498 3.15867 8 3.15867C8.63502 3.15867 9.23658 3.3672 9.64251 3.74059L10.4346 2.87947C9.77312 2.27104 8.86983 1.98867 8 1.98867C7.13017 1.98867 6.22688 2.27104 5.56541 2.87947L6.35749 3.74059Z" fill="#F5F5F5"/>
<path d="M9.27169 9.75H6.72831C6.61191 9.75 6.5294 9.85772 6.57376 9.96534C6.72111 10.3229 7.11678 11 8 11C8.88322 11 9.27889 10.3229 9.42624 9.96534C9.4706 9.85772 9.38809 9.75 9.27169 9.75Z" fill="#D9D9D9"/>
<path d="M6.75 8C6.75 8.55228 6.30228 9 5.75 9C5.19772 9 4.75 8.55228 4.75 8C4.75 7.44772 5.19772 7 5.75 7C6.30228 7 6.75 7.44772 6.75 8Z" fill="#D9D9D9"/>
<circle cx="10.25" cy="8" r="1" fill="#D9D9D9"/>
</svg>
