<svg width="16" height="16" viewBox="0 0 16 16" fill="none" xmlns="http://www.w3.org/2000/svg">
<path d="M4.57967 1.59943C3.92234 3.07977 5.83417 3.76063 6.75552 2.65083C7.67688 1.54103 9.55802 2.36631 8.90068 3.84666" stroke="#7DCFFF" stroke-linecap="round" stroke-linejoin="round"/>
<path d="M10.7105 5.79C10.878 5.79 11.0387 5.85654 11.1571 5.97497C11.2756 6.09341 11.3421 6.25404 11.3421 6.42154V11.4738C11.3421 12.1438 11.0759 12.7864 10.6022 13.2601C10.1284 13.7339 9.48581 14 8.81579 14H5.02632C4.3563 14 3.71372 13.7339 3.23994 13.2601C2.76616 12.7864 2.5 12.1438 2.5 11.4738V6.42154C2.5 6.25404 2.56654 6.09341 2.68499 5.97497C2.80343 5.85654 2.96407 5.79 3.13158 5.79H11.9737C12.6437 5.79 13.2863 6.05615 13.7601 6.52989C14.2338 7.00364 14.5 7.64618 14.5 8.31615C14.5 8.98613 14.2338 9.62867 13.7601 10.1024C13.2863 10.5762 12.6437 10.8423 11.9737 10.8423H11.3421" stroke="#7AA2F7" stroke-width="1.16667" stroke-linecap="round" stroke-linejoin="round"/>
</svg>
