<svg width="16" height="16" viewBox="0 0 16 16" fill="none" xmlns="http://www.w3.org/2000/svg">
<path fill-rule="evenodd" clip-rule="evenodd" d="M8.71 2.13L12.85 4.52C13.0528 4.63594 13.2216 4.80328 13.3392 5.00516C13.4568 5.20705 13.5192 5.43635 13.52 5.67V10.45C13.5189 10.6849 13.4565 10.9155 13.339 11.119C13.2215 11.3224 13.053 11.4917 12.85 11.61L8.71 14C8.50629 14.1176 8.27522 14.1795 8.04 14.1795C7.80478 14.1795 7.5737 14.1176 7.37 14L3.23 11.61C3.02704 11.4917 2.85847 11.3224 2.74097 11.119C2.62346 10.9155 2.56108 10.6849 2.56 10.45V5.67C2.56082 5.43635 2.62318 5.20705 2.7408 5.00516C2.85842 4.80328 3.02715 4.63594 3.23 4.52L7.37 2.13C7.5737 2.01239 7.80478 1.95047 8.04 1.95047C8.27522 1.95047 8.50629 2.01239 8.71 2.13ZM9.5 10.754V8.75H7.5V7.25H9.5V5.254H11V7.25H13V8.75H11V10.75H10.75L10.754 10.754H9.5ZM8.5 4.031C7.93714 3.96051 7.36574 4.01055 6.8237 4.17779C6.28166 4.34502 5.78139 4.62563 5.35609 5.00099C4.9308 5.37635 4.5902 5.83787 4.35691 6.35493C4.12362 6.87199 4.00297 7.43275 4.00297 8C4.00297 8.56725 4.12362 9.12801 4.35691 9.64507C4.5902 10.1621 4.9308 10.6237 5.35609 10.999C5.78139 11.3744 6.28166 11.655 6.8237 11.8222C7.36574 11.9894 7.93714 12.0395 8.5 11.969V9.934C8.20411 10.0116 7.89436 10.0204 7.59457 9.95954C7.29478 9.8987 7.01294 9.7699 6.77073 9.58306C6.52852 9.39621 6.3324 9.15629 6.19746 8.88176C6.06252 8.60723 5.99235 8.3054 5.99235 7.9995C5.99235 7.6936 6.06252 7.39177 6.19746 7.11724C6.3324 6.84271 6.52852 6.60279 6.77073 6.41594C7.01294 6.22909 7.29478 6.1003 7.59457 6.03946C7.89436 5.97861 8.20411 5.98735 8.5 6.065V4.031Z" fill="#9D7CD8"/>
</svg>
