<svg width="16" height="16" viewBox="0 0 16 16" fill="none" xmlns="http://www.w3.org/2000/svg">
<path d="M2 5.29299V10.707C2 11.0767 2.20394 11.4162 2.53029 11.5898L7.53029 14.2501C7.82394 14.4063 8.17606 14.4063 8.46971 14.2501L13.4697 11.5898C13.7961 11.4162 14 11.0767 14 10.707V8V6.34615V5.29299C14 4.92332 13.7961 4.5838 13.4697 4.41016L8.46971 1.74991C8.17606 1.59367 7.82394 1.59367 7.53029 1.74991L2.53029 4.41016C2.20394 4.5838 2 4.92332 2 5.29299Z" stroke="#7AA2F7" stroke-width="1.16667" stroke-linecap="round" stroke-linejoin="round"/>
<path d="M9.75 5.9375C9.55221 5.73826 9.3258 5.57616 9.07888 5.45933C8.58924 5.22767 8.04636 5.18702 7.53443 5.3437C7.02251 5.50039 6.57015 5.84564 6.24751 6.32591C5.92488 6.80618 5.75 7.39463 5.75 8C5.75 8.60537 5.92488 9.19382 6.24751 9.67409C6.57015 10.1544 7.02251 10.4996 7.53443 10.6563C8.04636 10.813 8.58924 10.7723 9.07888 10.5407C9.3258 10.4238 9.55221 10.2617 9.75 10.0625" stroke="#7AA2F7" stroke-width="1.17" stroke-linecap="round" stroke-linejoin="round"/>
</svg>
