<svg width="16" height="16" viewBox="0 0 16 16" fill="none" xmlns="http://www.w3.org/2000/svg">
<path fill-rule="evenodd" clip-rule="evenodd" d="M3.50015 11.1285C3.48988 12.0156 4.02558 12.4977 4.89383 12.4985C5.84535 12.5101 6.40432 11.8558 6.33618 10.9219H5.33965C5.34749 11.105 5.33235 11.3582 5.23516 11.4726C5.16554 11.569 5.06321 11.6172 4.92857 11.6172C4.64051 11.6127 4.49655 11.4061 4.49655 10.9976V9.04928C4.49655 8.83363 4.52791 8.67063 4.59063 8.56054C4.69268 8.35755 5.07862 8.33462 5.22475 8.52961C5.33722 8.63717 5.34735 8.92279 5.33979 9.11138H6.33632C6.36227 8.63144 6.25305 8.11711 5.9635 7.86534C5.49362 7.37501 4.38056 7.40272 3.90082 7.85841C3.6337 8.09245 3.50015 8.43445 3.50015 8.88414V11.1285ZM6.6917 10.9219C6.66507 11.8366 7.09548 12.5115 8.05755 12.4985C9.39188 12.554 9.76461 11.0973 9.22115 10.1437C9.03894 9.83087 8.53635 9.57227 8.14108 9.42087C7.83585 9.28239 7.70486 9.14644 7.70203 8.81511C7.70203 8.50309 7.83436 8.34702 8.09917 8.34702C8.24774 8.34702 8.34886 8.39527 8.40225 8.49163C8.47849 8.60545 8.497 8.91772 8.4893 9.11126H9.3953C9.41731 8.64037 9.30362 8.12871 9.04339 7.86867C8.62151 7.36421 7.52075 7.38686 7.09926 7.87894C6.66548 8.27771 6.63682 9.26186 6.94597 9.71022C7.08304 9.91229 7.30717 10.0866 7.61849 10.2334C7.66031 10.2541 7.70931 10.2766 7.76201 10.3009C7.98396 10.4029 8.27138 10.535 8.36412 10.6809C8.52837 10.8684 8.50688 11.353 8.39197 11.5208C8.33155 11.6127 8.22692 11.6585 8.07836 11.6585C7.74528 11.6838 7.60632 11.3206 7.63241 10.9219H6.6917ZM9.72995 10.9219C9.70335 11.8366 10.1338 12.5115 11.0958 12.4985C12.4301 12.554 12.8028 11.0973 12.2594 10.1437C12.0772 9.83087 11.5746 9.57227 11.1794 9.42087C10.8741 9.28239 10.7431 9.14644 10.7403 8.81511C10.7403 8.50309 10.8726 8.34702 11.1374 8.34702C11.286 8.34702 11.3871 8.39527 11.4405 8.49163C11.5167 8.60545 11.5353 8.91772 11.5276 9.11126H12.4335C12.4555 8.64037 12.3419 8.12871 12.0817 7.86867C11.6598 7.36421 10.559 7.38686 10.1376 7.87894C9.70378 8.27771 9.6751 9.26186 9.98428 9.71022C10.1213 9.91229 10.3454 10.0866 10.6568 10.2334C10.6986 10.2541 10.7476 10.2766 10.8003 10.3009C11.0222 10.4029 11.3096 10.535 11.4024 10.6809C11.5666 10.8684 11.5452 11.353 11.4303 11.5208C11.3699 11.6127 11.2652 11.6585 11.1167 11.6585C10.7836 11.6838 10.6446 11.3206 10.6707 10.9219H9.72995Z" fill="#BB9AF7"/>
<path d="M14 3.33333C14 2.59695 13.403 2 12.6667 2H2V12.6667C2 13.403 2.59695 14 3.33333 14H12.6667C13.403 14 14 13.403 14 12.6667V3.33333Z" stroke="#BB9AF7" stroke-width="1.16667" stroke-linecap="round" stroke-linejoin="round"/>
</svg>
