<svg width="16" height="16" viewBox="0 0 16 16" fill="none" xmlns="http://www.w3.org/2000/svg">
<path d="M11.5971 4.47321L4.08813 4.16071L8.21045 2.07567C8.59488 1.88122 9.06064 1.95484 9.36636 2.25838L11.5971 4.47321Z" fill="#8DB0FF"/>
<path d="M12.0917 12.0625L4.08813 4.16071H10.8703C11.1342 4.16071 11.3875 4.26509 11.5748 4.45108L14.25 7.10714V12.0625H12.0917Z" fill="#3D59A1"/>
<path d="M2.05818 8.38541L4.08813 4.16071L4.31295 11.5714L2.25496 9.52814C1.95268 9.22802 1.8737 8.76935 2.05818 8.38541Z" fill="#3D59A1"/>
<path d="M4.08813 10.9319V4.20536V4.16071L12.0917 12.0625V14.25H7.0108L4.38357 11.6415C4.19448 11.4538 4.08813 11.1984 4.08813 10.9319Z" fill="#8DB0FF"/>
</svg>
