<svg width="16" height="16" viewBox="0 0 16 16" fill="none" xmlns="http://www.w3.org/2000/svg">
<path d="M14.4638 7.63371C14.1532 7.42463 13.337 7.33534 12.7436 7.49516C12.7116 6.90411 12.4069 6.40604 11.8493 5.97146L11.6429 5.83291L11.5054 6.04065C11.235 6.4511 11.121 6.99793 11.1614 7.495C11.1932 7.80124 11.2998 8.14552 11.5054 8.39531C10.733 8.84329 10.0212 8.7416 6.86857 8.7416H2.00109C1.98685 9.45345 2.10128 10.8229 2.97211 11.9376C3.06827 12.0608 3.17382 12.1799 3.28824 12.2946C3.99623 13.0036 5.06593 13.5235 6.66552 13.525C9.1058 13.5272 11.1966 12.2082 12.4683 9.01887C12.8868 9.02574 13.9915 9.09392 14.5322 8.04919C14.5454 8.0316 14.6697 7.77209 14.6697 7.77209L14.4638 7.63371Z" fill="#7DCFFF"/>
<path d="M4.77778 6H3.22222C3.09949 6 3 6.09949 3 6.22222V7.77778C3 7.90051 3.09949 8 3.22222 8H4.77778C4.90051 8 5 7.90051 5 7.77778V6.22222C5 6.09949 4.90051 6 4.77778 6Z" fill="#7DCFFF"/>
<path d="M7.27778 6H5.72222C5.59949 6 5.5 6.09949 5.5 6.22222V7.77778C5.5 7.90051 5.59949 8 5.72222 8H7.27778C7.40051 8 7.5 7.90051 7.5 7.77778V6.22222C7.5 6.09949 7.40051 6 7.27778 6Z" fill="#7DCFFF"/>
<path d="M7.27778 3.5H5.72222C5.59949 3.5 5.5 3.59949 5.5 3.72222V5.27778C5.5 5.40051 5.59949 5.5 5.72222 5.5H7.27778C7.40051 5.5 7.5 5.40051 7.5 5.27778V3.72222C7.5 3.59949 7.40051 3.5 7.27778 3.5Z" fill="#7DCFFF"/>
<path d="M9.77778 6H8.22222C8.09949 6 8 6.09949 8 6.22222V7.77778C8 7.90051 8.09949 8 8.22222 8H9.77778C9.90051 8 10 7.90051 10 7.77778V6.22222C10 6.09949 9.90051 6 9.77778 6Z" fill="#7DCFFF"/>
<path d="M9.77778 3.5H8.22222C8.09949 3.5 8 3.59949 8 3.72222V5.27778C8 5.40051 8.09949 5.5 8.22222 5.5H9.77778C9.90051 5.5 10 5.40051 10 5.27778V3.72222C10 3.59949 9.90051 3.5 9.77778 3.5Z" fill="#7DCFFF"/>
</svg>
