<svg width="16" height="16" viewBox="0 0 16 16" fill="none" xmlns="http://www.w3.org/2000/svg">
<path d="M5.42177 8.55976H7.22303M5.42177 6.32068H10.1051M5.42177 10.7989H6.50253M2.96204 6.88044C2.96204 4.76954 2.96204 3.71382 3.6181 3.05831C4.27359 2.40227 5.32933 2.40227 7.44024 2.40227H8.55977C10.6707 2.40227 11.7264 2.40227 12.3819 3.05831C13.038 3.71382 13.038 4.76954 13.038 6.88044V9.11956C13.038 11.2305 13.038 12.2862 12.3819 12.9417C11.7264 13.5977 10.6707 13.5977 8.55977 13.5977H7.44024C5.32933 13.5977 4.27359 13.5977 3.6181 12.9417C2.96204 12.2862 2.96204 11.2305 2.96204 9.11956V6.88044Z" stroke="#7AA2F7" stroke-width="0.839661" stroke-linecap="round"/>
</svg>
