<svg width="16" height="16" viewBox="0 0 16 16" fill="none" xmlns="http://www.w3.org/2000/svg">
<path d="M11.5355 13.0833L11.1288 12.6628H11.1288L11.5355 13.0833ZM10.5 5.91558L10.858 5.45294L10.5 5.91558ZM8.67403 2.23589L9.24726 2.11913V2.11913L8.67403 2.23589ZM7.64277 1.55162L7.8623 2.09386V2.09386L7.64277 1.55162ZM4.46447 13.0833L4.87122 12.6628H4.87122L4.46447 13.0833ZM6.585 9.45034C6.585 9.12725 6.32308 8.86534 6 8.86534C5.67691 8.86534 5.415 9.12726 5.415 9.45034L6.585 9.45034ZM6.87868 11.2357L6.50199 11.6832H6.50199L6.87868 11.2357ZM9 12.5602C9.32309 12.5602 9.585 12.2983 9.585 11.9752C9.585 11.6521 9.32309 11.3902 9 11.3902V12.5602ZM11.1288 12.6628C10.3022 13.4625 9.17707 13.915 8 13.915V15.085C9.47509 15.085 10.8935 14.5183 11.9423 13.5037L11.1288 12.6628ZM12.415 9.66296C12.415 10.7843 11.9547 11.8638 11.1288 12.6628L11.9423 13.5037C12.9917 12.4885 13.585 11.1073 13.585 9.66296H12.415ZM10.142 6.37821C11.5579 7.47403 12.415 8.57976 12.415 9.66296H13.585C13.585 7.98213 12.2993 6.56834 10.858 5.45294L10.142 6.37821ZM8.1008 2.35264C8.38857 3.76546 8.7645 5.31216 10.142 6.37821L10.858 5.45294C9.85751 4.6786 9.53777 3.5454 9.24726 2.11913L8.1008 2.35264ZM7.8623 2.09386C7.88751 2.08366 7.90104 2.08458 7.90804 2.08557C7.91709 2.08686 7.93453 2.0916 7.95892 2.10899C8.0122 2.14698 8.07612 2.23143 8.1008 2.35264L9.24726 2.11913C9.16941 1.73691 8.9558 1.38282 8.63815 1.15634C8.3075 0.920591 7.86602 0.830107 7.42323 1.00937L7.8623 2.09386ZM3.585 8.94537C3.585 7.98032 4.11431 6.4719 4.96762 5.05619C5.82474 3.63416 6.90263 2.48239 7.8623 2.09386L7.42323 1.00937C6.10346 1.54369 4.85998 2.96831 3.96557 4.45221C3.06735 5.94243 2.415 7.66947 2.415 8.94537H3.585ZM4.87122 12.6628C4.49776 12.3015 4.19574 11.9623 3.97335 11.4437C3.74737 10.9167 3.585 10.1588 3.585 8.94537H2.415C2.415 10.2568 2.58949 11.1853 2.89806 11.9048C3.21023 12.6328 3.64043 13.1 4.05772 13.5037L4.87122 12.6628ZM8 13.915C6.82293 13.915 5.69781 13.4625 4.87122 12.6628L4.05772 13.5037C5.10648 14.5183 6.5249 15.085 8 15.085V13.915ZM5.415 9.45034C5.415 9.93677 5.51091 10.3601 5.70992 10.7408C5.9063 11.1164 6.18553 11.4169 6.50199 11.6832L7.25537 10.7881C7.00922 10.5809 6.84912 10.3945 6.7468 10.1988C6.64713 10.0081 6.585 9.77547 6.585 9.45034L5.415 9.45034ZM6.50199 11.6832C7.179 12.253 8.07868 12.5602 9 12.5602V11.3902C8.33002 11.3902 7.70358 11.1653 7.25537 10.7881L6.50199 11.6832Z" fill="#BB9AF7"/>
</svg>
