<svg width="16" height="16" viewBox="0 0 16 16" fill="none" xmlns="http://www.w3.org/2000/svg">
<path d="M1.5 2.94444C1.5 2.72844 1.54741 2.52352 1.6324 2.3395L7.29289 8L1.6324 13.6605C1.54741 13.4765 1.5 13.2716 1.5 13.0556V2.94444Z" fill="#7AA2F7"/>
<path d="M2.94444 14.5C2.72844 14.5 2.52352 14.4526 2.3395 14.3676L8 8.70711L13.6605 14.3676C13.4765 14.4526 13.2716 14.5 13.0556 14.5H2.94444Z" fill="#7AA2F7"/>
<path d="M14.5 13.0556C14.5 13.2716 14.4526 13.4765 14.3676 13.6605L12.2071 11.5L14.5 9.20711V13.0556Z" fill="#7AA2F7"/>
<path d="M14.5 6.79289V2.94444C14.5 2.1467 13.8533 1.5 13.0556 1.5H9.20711L14.5 6.79289Z" fill="#7AA2F7"/>
<path d="M7.79289 1.5H2.94444C2.72844 1.5 2.52352 1.54741 2.3395 1.6324L4.77531 4.06821L10.305 4.0121L7.79289 1.5Z" fill="#7AA2F7"/>
<path d="M5.76532 5.05821L10.2805 5.0124L8 7.29289L5.76532 5.05821Z" fill="#7AA2F7"/>
<path d="M8.70711 8L11.5 10.7929L14.2929 8L11.5 5.20711L8.70711 8Z" fill="#7AA2F7"/>
</svg>
