<svg width="16" height="16" viewBox="0 0 16 16" fill="none" xmlns="http://www.w3.org/2000/svg">
<path d="M3.53748 12C3.01919 11.4629 2.6093 10.8129 2.33418 10.0918C2.05906 9.3708 1.9248 8.59467 1.94003 7.81338C1.91818 6.40263 2.3946 5.03712 3.26988 4.00178H1.5V12H3.53748ZM12.8538 12C13.3046 11.5235 13.7002 10.9879 14.0315 10.4055L12.0729 9.45329C11.7554 10.0528 11.308 10.5575 10.7703 10.9229C10.2325 11.2882 9.62094 11.5031 8.98946 11.5484C6.96581 11.5413 6.17034 9.85592 6.1744 7.69224H13.7387C13.7492 7.53389 13.7492 7.37492 13.7387 7.21657C13.8081 6.05243 13.4715 4.90284 12.7968 4H14.5V11.9982H12.8546L12.8538 12ZM6.29722 5.83498C6.35419 5.36157 6.57243 4.92924 6.9082 4.62462C7.24396 4.32 7.67245 4.16562 8.10777 4.19241C8.31529 4.17563 8.52376 4.20547 8.72037 4.28009C8.91698 4.35472 9.0976 4.47255 9.25115 4.62636C9.40469 4.78016 9.52792 4.96671 9.61328 5.17454C9.69863 5.38238 9.74431 5.60712 9.74751 5.83498H6.29722Z" fill="#F7768E"/>
</svg>
