<svg width="16" height="16" viewBox="0 0 16 16" fill="none" xmlns="http://www.w3.org/2000/svg">
<path d="M8.12 5.42C7.59311 5.38374 7.07119 5.54178 6.65292 5.86424C6.23464 6.18669 5.949 6.65122 5.85 7.17H10.27C10.1833 6.66786 9.91791 6.21405 9.52272 5.89238C9.12752 5.57071 8.62927 5.40292 8.12 5.42ZM8.12 3.42H8.19C8.7765 3.42876 9.35526 3.55523 9.89195 3.79191C10.4286 4.0286 10.9123 4.37067 11.3143 4.79783C11.7163 5.22499 12.0284 5.72855 12.2321 6.27861C12.4357 6.82868 12.5268 7.41405 12.5 8C12.5012 8.30892 12.4711 8.61717 12.41 8.92H5.88C6.03197 9.43546 6.36113 9.88067 6.80939 10.1771C7.25765 10.4735 7.7962 10.602 8.33 10.54C8.69735 10.5527 9.0628 10.4819 9.39884 10.333C9.73487 10.184 10.0327 9.96074 10.27 9.68L12.07 10.68C11.6453 11.2803 11.0766 11.7642 10.4161 12.0875C9.75567 12.4107 9.02459 12.5629 8.29 12.53C7.67489 12.5703 7.05812 12.4824 6.47879 12.2718C5.89945 12.0612 5.37019 11.7325 4.92455 11.3066C4.47891 10.8807 4.12661 10.3669 3.89 9.79766C3.65338 9.22846 3.5376 8.6163 3.55 8C3.52507 7.39566 3.62473 6.79266 3.84278 6.22848C4.06082 5.6643 4.3926 5.151 4.81747 4.7205C5.24234 4.29001 5.75122 3.95151 6.31249 3.72606C6.87375 3.50061 7.47539 3.39303 8.08 3.41M13.5 2.41H2.5C2.23478 2.41 1.98043 2.51536 1.79289 2.70289C1.60536 2.89043 1.5 3.14478 1.5 3.41V12.41C1.49983 12.5456 1.52726 12.6799 1.58061 12.8046C1.63396 12.9293 1.71212 13.0418 1.81034 13.1354C1.90857 13.2289 2.02479 13.3015 2.15194 13.3487C2.2791 13.3959 2.41453 13.4168 2.55 13.41H13.55C13.6855 13.4168 13.8209 13.3959 13.9481 13.3487C14.0752 13.3015 14.1914 13.2289 14.2897 13.1354C14.3879 13.0418 14.466 12.9293 14.5194 12.8046C14.5727 12.6799 14.6002 12.5456 14.6 12.41V3.41C14.6002 3.27436 14.5727 3.14011 14.5194 3.0154C14.466 2.8907 14.3879 2.77815 14.2897 2.68461C14.1914 2.59107 14.0752 2.51848 13.9481 2.47127C13.8209 2.42407 13.6855 2.40322 13.55 2.41" fill="#DB4B4B"/>
</svg>
