<svg width="16" height="16" viewBox="0 0 16 16" fill="none" xmlns="http://www.w3.org/2000/svg">
<path d="M5.44657 13.5H10.5534C10.9009 13.5 11.2202 13.3128 11.3843 13.0129L13.8883 8.43593C14.0372 8.16362 14.0372 7.83638 13.8883 7.56407L11.3843 2.98714C11.2202 2.68721 10.9009 2.5 10.5534 2.5H5.44657C5.09911 2.5 4.77982 2.68721 4.61573 2.98714L2.11173 7.56407C1.96276 7.83638 1.96276 8.16362 2.11173 8.43593L4.61573 13.0129C4.77982 13.3128 5.09911 13.5 5.44657 13.5Z" stroke="#8DB0FF" stroke-width="1.07692" stroke-linecap="round" stroke-linejoin="round"/>
<path d="M5.25 6.72329V9.27671C5.25 9.45045 5.3436 9.61009 5.49357 9.69214L7.78203 10.9441C7.91819 11.0186 8.08181 11.0186 8.21797 10.9441L10.5064 9.69214C10.6564 9.61009 10.75 9.45045 10.75 9.27671V6.72329C10.75 6.54955 10.6564 6.38991 10.5064 6.30786L8.21797 5.05587C8.08181 4.98138 7.91819 4.98138 7.78203 5.05587L5.49357 6.30786C5.3436 6.38991 5.25 6.54955 5.25 6.72329Z" stroke="#BB9AF7" stroke-width="1.17" stroke-linecap="round" stroke-linejoin="round"/>
</svg>
