<svg width="16" height="16" viewBox="0 0 16 16" fill="none" xmlns="http://www.w3.org/2000/svg">
<path d="M8 1.74C7.70846 1.74205 7.42899 1.8567 7.22 2.06L5.94 3.35L7.57 5C7.70541 4.93735 7.85115 4.90007 8 4.89C8.26522 4.89 8.51957 4.99536 8.70711 5.18289C8.89465 5.37043 9 5.62478 9 5.89C9.00078 6.03487 8.97007 6.17817 8.91 6.31L10.13 7.53C10.2618 7.46993 10.4051 7.43922 10.55 7.44C10.8152 7.44 11.0696 7.54536 11.2571 7.73289C11.4446 7.92043 11.55 8.17478 11.55 8.44C11.55 8.70522 11.4446 8.95957 11.2571 9.14711C11.0696 9.33464 10.8152 9.44 10.55 9.44C10.374 9.44931 10.1986 9.41192 10.0417 9.33162C9.88474 9.25131 9.75182 9.13095 9.6564 8.98273C9.56097 8.83452 9.50641 8.6637 9.49827 8.48761C9.49012 8.31152 9.52867 8.1364 9.61 7.98L8.42 6.87H8.36V10.1C8.57692 10.185 8.75734 10.3432 8.87009 10.547C8.98285 10.7509 9.02088 10.9878 8.9776 11.2167C8.93433 11.4457 8.81247 11.6523 8.63308 11.801C8.45368 11.9497 8.228 12.031 7.995 12.031C7.76201 12.031 7.53633 11.9497 7.35693 11.801C7.17753 11.6523 7.05568 11.4457 7.0124 11.2167C6.96913 10.9878 7.00715 10.7509 7.11991 10.547C7.23267 10.3432 7.41309 10.185 7.63 10.1V6.89C7.42676 6.81694 7.25263 6.68005 7.13366 6.49979C7.01469 6.31953 6.95727 6.1056 6.97 5.89C6.96776 5.74177 6.9985 5.59489 7.06 5.46L5.43 3.87L1.83 7.47C1.63144 7.67516 1.52043 7.94949 1.52043 8.235C1.52043 8.52051 1.63144 8.79484 1.83 9L7.23 14.41C7.43776 14.6152 7.718 14.7303 8.01 14.7303C8.30201 14.7303 8.58225 14.6152 8.79 14.41L14.2 9C14.4028 8.79101 14.5163 8.51123 14.5163 8.22C14.5163 7.92877 14.4028 7.64899 14.2 7.44L8.79 2.06C8.57854 1.8543 8.29501 1.73945 8 1.74Z" fill="#DB4B4B"/>
</svg>
