<svg width="16" height="16" viewBox="0 0 16 16" fill="none" xmlns="http://www.w3.org/2000/svg">
<path d="M10.4395 14V11.6C10.5245 10.8484 10.3051 10.0941 9.82878 9.5C11.661 9.5 13.4932 8.3 13.4932 6.2C13.542 5.45 13.3283 4.712 12.8824 4.1C13.0534 3.41 13.0534 2.69 12.8824 2C12.8824 2 12.2717 2 11.0502 2.9C9.43791 2.6 7.77672 2.6 6.16439 2.9C4.94293 2 4.33219 2 4.33219 2C4.14897 2.69 4.14897 3.41 4.33219 4.1C3.8875 4.70953 3.67167 5.45167 3.72146 6.2C3.72146 8.3 5.55366 9.5 7.38585 9.5C7.14767 9.794 6.97055 10.13 6.86673 10.49C6.7629 10.85 6.73237 11.228 6.77512 11.6V14" stroke="#C0CAF5" stroke-width="1.17" stroke-linecap="round" stroke-linejoin="round"/>
<path d="M6.77512 11.6C4.02072 12.8 3.72146 10.4 2.5 10.4" stroke="#C0CAF5" stroke-width="1.17" stroke-linecap="round" stroke-linejoin="round"/>
</svg>
