<svg width="16" height="16" viewBox="0 0 16 16" fill="none" xmlns="http://www.w3.org/2000/svg">
<path d="M13.5384 6.85001L13.522 6.8088L11.9629 2.73873C11.9308 2.65888 11.8746 2.59106 11.802 2.54511C11.6536 2.45286 11.4626 2.46343 11.3247 2.57064C11.2584 2.62497 11.2099 2.69826 11.1865 2.78103L10.1335 6.00259H5.86942L4.81635 2.78103C4.79338 2.6979 4.74525 2.62424 4.67815 2.57027C4.54032 2.46271 4.34925 2.4525 4.20085 2.54475C4.12828 2.59069 4.07213 2.65851 4.04041 2.73801L2.47794 6.80625L2.46226 6.84745C2.001 8.05257 2.39262 9.41741 3.42271 10.1944L3.42818 10.1988L3.4424 10.2087L5.81837 11.9877L6.99359 12.8774L7.70937 13.4178C7.88112 13.5484 8.12032 13.5484 8.2917 13.4178L9.00784 12.8774L10.1831 11.9877L12.5733 10.1981L12.5791 10.1934C13.6066 9.41595 13.9975 8.05403 13.5384 6.85001Z" fill="#DB4B4B"/>
<path d="M13.5384 6.85001L13.522 6.8088C12.7625 6.9645 12.0464 7.28647 11.425 7.75138L7.99998 10.3414C9.16646 11.2234 10.182 11.9903 10.182 11.9903L12.5718 10.2006L12.5776 10.1959C13.607 9.4185 13.9986 8.05476 13.5384 6.85001Z" fill="#FF9E64"/>
<path d="M5.81837 11.9903L7.70937 13.4204C7.88111 13.5506 8.12031 13.5506 8.29169 13.4204L9.00784 12.8796L10.1831 11.9903C10.1831 11.9903 9.16646 11.2216 7.99998 10.3414C7.27217 10.8905 6.54545 11.44 5.81837 11.9903Z" fill="#FABA4A"/>
<path d="M4.57423 7.75138C3.95362 7.28538 3.23784 6.96268 2.47794 6.80625L2.46226 6.84745C2.001 8.05257 2.39262 9.41741 3.42271 10.1944L3.42818 10.1988L3.4424 10.2087L5.81837 11.9877L7.99999 10.3388L4.57423 7.75138Z" fill="#FF9E64"/>
</svg>
