<svg width="16" height="16" viewBox="0 0 16 16" fill="none" xmlns="http://www.w3.org/2000/svg">
<path d="M13.9789 8.28856L11.9881 2.17774C11.9707 2.13389 11.9417 2.09582 11.9044 2.06775C11.8691 2.03106 11.8228 2.00741 11.7729 2.00053C11.7238 1.99963 11.6757 2.0146 11.6354 2.04331C11.5981 2.07138 11.5691 2.10945 11.5517 2.1533L10.2005 6.22922H5.80035L4.47312 2.15941C4.46243 2.11824 4.44189 2.08044 4.41334 2.04942C4.3692 2.01407 4.31384 1.99666 4.2579 2.00053C4.2088 1.99963 4.16068 2.0146 4.12039 2.04331C4.0831 2.07138 4.05413 2.10945 4.03669 2.1533L2.02194 8.28856C1.99277 8.37967 1.99269 8.47791 2.0217 8.56907C2.05071 8.66024 2.10732 8.73962 2.18336 8.79576L8.00044 13L13.7936 8.79576C13.8762 8.74522 13.9395 8.66749 13.9732 8.57533C14.0068 8.48318 14.0089 8.38206 13.9789 8.28856Z" stroke="#FF9E64" stroke-width="1.17" stroke-linecap="round" stroke-linejoin="round"/>
</svg>
