<svg width="16" height="16" viewBox="0 0 16 16" fill="none" xmlns="http://www.w3.org/2000/svg">
<path d="M13.274 5.81829V10.1857L13.1333 10.1994L8.05208 8.06502L8.002 8.002L13.274 5.81829Z" fill="#DB4B4B"/>
<path d="M13.274 10.1857L10.1857 13.274L10.1386 13.2377L7.98408 8.14657L8.002 8.002L13.274 10.1857Z" fill="#E0AF68"/>
<path d="M8.002 8.002L7.88551 8.08203L5.79995 13.1851L5.81828 13.274H10.1857L8.002 8.002Z" fill="#FABA4A"/>
<path d="M2.73 10.1857L2.86073 10.0841L7.88551 7.98343L8.002 8.002L5.81828 13.274L2.73 10.1857Z" fill="#9ECE6A"/>
<path d="M2.73 5.81829L2.86073 5.80943L7.92972 7.88829L8.002 8.002L2.73 10.1857V5.81829Z" fill="#B5D66D"/>
<path d="M5.81828 2.73L2.73 5.81829L8.002 8.002L8.01126 7.8679L6.04542 2.85463L5.81828 2.73Z" fill="#9ECE6A"/>
<path d="M5.81828 2.73H10.1857L8.002 8.002L5.81828 2.73Z" fill="#7AA2F7"/>
</svg>
