<svg width="16" height="16" viewBox="0 0 16 16" fill="none" xmlns="http://www.w3.org/2000/svg">
<path d="M6.16001 8.88H4.53001L4.88201 7.526C6.00001 7.5 6.91501 7.51 7.66001 7.51C7.67842 7.51282 7.69721 7.51194 7.71528 7.50741C7.73334 7.50288 7.75032 7.49479 7.76522 7.48361C7.78012 7.47244 7.79264 7.4584 7.80205 7.44233C7.81146 7.42625 7.81757 7.40846 7.82001 7.39C8.04386 6.76263 8.42868 6.20513 8.93591 5.77337C9.44314 5.34162 10.0549 5.05077 10.71 4.93C11.3721 4.77405 12.067 4.83806 12.6895 5.11232C13.312 5.38658 13.8282 5.85616 14.16 6.45L14.24 6.6C14.4452 7.08093 14.5331 7.60372 14.4966 8.12531C14.4601 8.6469 14.3002 9.15234 14.03 9.6C13.5943 10.2938 12.9602 10.8408 12.21 11.17C11.8025 11.3767 11.3553 11.4937 10.8987 11.513C10.4422 11.5323 9.98675 11.4536 9.56317 11.2821C9.1396 11.1106 8.7577 10.8503 8.4432 10.5187C8.12871 10.1871 7.88893 9.79204 7.74001 9.36C6.86001 11.25 4.24001 12.19 2.54001 10.81C0.0620111 8.865 2.09001 4.711 4.93601 4.711C5.94401 4.711 7.43201 5.112 8.00001 6.6C7.49001 6.78 7.00001 6.86 6.46001 7.03C6.08301 6.6 5.64401 6.448 5.08401 6.445C4.63153 6.44318 4.19553 6.61472 3.86559 6.92438C3.53566 7.23405 3.33685 7.65831 3.31001 8.11C3.26437 8.46708 3.34954 8.82862 3.54979 9.12777C3.75004 9.42692 4.05183 9.64346 4.39936 9.73735C4.74689 9.83125 5.11666 9.79615 5.44031 9.63854C5.76397 9.48094 6.01962 9.21149 6.16001 8.88ZM11.34 6.44C9.51001 6.37 8.55001 9.26 10.57 9.77C12.59 10.28 13.79 6.65 11.34 6.44Z" fill="#27A1B9"/>
</svg>
