<svg width="16" height="16" viewBox="0 0 16 16" fill="none" xmlns="http://www.w3.org/2000/svg">
<path d="M7.8356 6.46072C7.29538 6.60708 6.92666 6.71686 6.39501 6.86322C6.26639 6.8998 6.25781 6.90895 6.14634 6.77174C6.01772 6.61623 5.92339 6.51561 5.74332 6.42413C5.2031 6.14056 4.68002 6.22289 4.19125 6.56135C3.60815 6.96385 3.30803 7.55843 3.31661 8.29938C3.32518 9.0312 3.7968 9.63493 4.47423 9.73556C5.05732 9.81789 5.5461 9.59835 5.93197 9.13182C6.00914 9.0312 6.07773 8.92142 6.16348 8.79336C5.85479 8.79336 5.46892 8.79336 4.50852 8.79336C4.32845 8.79336 4.28558 8.67444 4.3456 8.51894C4.45708 8.23535 4.66287 7.75968 4.78292 7.52184C4.80865 7.46696 4.86867 7.37548 4.9973 7.37548H8.11857C8.10143 7.62247 8.10143 7.86945 8.06712 8.11644C7.9728 8.77506 7.74128 9.37881 7.36398 9.90937C6.74658 10.7783 5.94054 11.318 4.92012 11.4644C4.07978 11.5834 3.29946 11.4095 2.61346 10.8607C1.97891 10.3485 1.61877 9.67153 1.52444 8.82995C1.41297 7.83286 1.68737 6.9364 2.25331 6.14971C2.86213 5.29898 3.66818 4.75927 4.6543 4.56717C5.46035 4.41166 6.23209 4.51229 6.92666 5.01541C7.38113 5.33557 7.70697 5.77466 7.92135 6.30521C7.9728 6.38754 7.9385 6.43328 7.8356 6.46072Z" fill="#7DCFFF"/>
<path d="M10.8505 11.5C10.0938 11.4815 9.40354 11.2415 8.82145 10.6875C8.33082 10.2165 8.02314 9.61632 7.92335 8.90532C7.77367 7.86189 8.03145 6.93851 8.59692 6.11669C9.20397 5.23025 9.93574 4.76855 10.9253 4.57464C11.7736 4.40843 12.5718 4.50077 13.2953 5.04557C13.9522 5.54419 14.3597 6.21826 14.4678 7.10471C14.6091 8.35129 14.2848 9.367 13.5115 10.235C12.9627 10.8537 12.2891 11.2415 11.5157 11.4169C11.2912 11.463 11.0666 11.4723 10.8505 11.5ZM12.8296 7.76955C12.8213 7.64951 12.8213 7.55717 12.8046 7.46483C12.655 6.55069 11.8982 6.03359 11.1082 6.23673C10.3349 6.43064 9.83596 6.97544 9.65301 7.84342C9.50333 8.56366 9.81932 9.29314 10.4181 9.58862C10.8754 9.81023 11.3328 9.78253 11.7736 9.53321C12.4305 9.15462 12.788 8.56366 12.8296 7.76955Z" fill="#7DCFFF"/>
</svg>
