<svg width="16" height="16" viewBox="0 0 16 16" fill="none" xmlns="http://www.w3.org/2000/svg">
<path d="M8.2 14.5C8.01614 14.4982 7.83499 14.4555 7.66968 14.375C7.50436 14.2945 7.359 14.1783 7.24414 14.0347C7.12928 13.8911 7.04779 13.7238 7.00556 13.5448C6.96334 13.3659 6.96144 13.1798 7 13L4.49 11.54C4.4253 11.6043 4.3511 11.6583 4.27 11.7C4.08206 11.8106 3.86808 11.8693 3.65 11.87C3.37567 11.8753 3.10735 11.7894 2.88706 11.6258C2.66677 11.4622 2.50694 11.2302 2.43262 10.9661C2.3583 10.702 2.37368 10.4207 2.47636 10.1662C2.57903 9.91178 2.76319 9.69858 3 9.56C3.07732 9.51097 3.16161 9.47388 3.25 9.45V6.55C3.16161 6.52612 3.07732 6.48904 3 6.44C2.7152 6.27661 2.50683 6.00693 2.42059 5.69011C2.33436 5.37329 2.3773 5.0352 2.54 4.75C2.65088 4.56195 2.80872 4.40594 2.99805 4.29725C3.18738 4.18856 3.40169 4.13093 3.62 4.13C3.83808 4.1307 4.05206 4.18937 4.24 4.3C4.3211 4.34175 4.3953 4.39571 4.46 4.46L7 3C6.99015 2.90693 6.99015 2.81308 7 2.72C6.98455 2.54848 7.005 2.37562 7.06004 2.21244C7.11508 2.04925 7.20352 1.89932 7.3197 1.7722C7.43589 1.64508 7.57728 1.54355 7.73487 1.47409C7.89245 1.40463 8.06278 1.36876 8.235 1.36876C8.40722 1.36876 8.57755 1.40463 8.73513 1.47409C8.89272 1.54355 9.03411 1.64508 9.1503 1.7722C9.26648 1.89932 9.35492 2.04925 9.40996 2.21244C9.465 2.37562 9.48545 2.54848 9.47 2.72C9.47929 2.8131 9.47929 2.9069 9.47 3L11.98 4.44C12.0447 4.37571 12.1189 4.32175 12.2 4.28C12.3879 4.16937 12.6019 4.1107 12.82 4.11C13.0381 4.11191 13.252 4.16995 13.4412 4.27854C13.6304 4.38713 13.7884 4.54261 13.9 4.73C14.06 5.01579 14.1015 5.35299 14.0155 5.66904C13.9295 5.98509 13.7228 6.25475 13.44 6.42C13.3627 6.46904 13.2784 6.50612 13.19 6.53V9.43C13.2784 9.45388 13.3627 9.49097 13.44 9.54C13.5818 9.61998 13.7062 9.72755 13.8058 9.85636C13.9054 9.98516 13.9783 10.1326 14.02 10.29C14.067 10.4737 14.0717 10.6657 14.0335 10.8515C13.9954 11.0372 13.9155 11.2119 13.7998 11.3622C13.6842 11.5125 13.5359 11.6345 13.3662 11.719C13.1964 11.8036 13.0096 11.8483 12.82 11.85C12.6019 11.8493 12.3879 11.7906 12.2 11.68C12.1064 11.6315 12.0218 11.5672 11.95 11.49L9.4 13C9.41463 13.1028 9.41463 13.2072 9.4 13.31C9.38751 13.6233 9.25678 13.9203 9.03412 14.1411C8.81146 14.3619 8.51342 14.4901 8.2 14.5ZM8.2 12C8.52423 12.0004 8.83583 12.1257 9.07 12.35L11.42 11H5L7.37 12.35C7.59246 12.1326 7.88903 12.0075 8.2 12ZM11.57 10.24C11.6006 10.1541 11.6374 10.0706 11.68 9.99C11.7278 9.91023 11.7849 9.83638 11.85 9.77L8.48 4C8.38693 4.00985 8.29307 4.00985 8.2 4C8.11364 4.01038 8.02636 4.01038 7.94 4L4.56 9.79C4.62514 9.85638 4.6822 9.93023 4.73 10.01C4.77265 10.0906 4.80941 10.1741 4.84 10.26L11.57 10.24ZM4 9.3L7.19 3.76L4.86 5.1C4.93342 5.40674 4.88313 5.73006 4.72 6C4.56858 6.27078 4.31741 6.47172 4.02 6.56L4 9.3ZM12.4 9.3V6.56C12.1061 6.4673 11.8572 6.26845 11.7019 6.00223C11.5466 5.73601 11.496 5.42149 11.56 5.12L9.22 3.76L12.4 9.3Z" fill="#BB9AF7"/>
</svg>
