<svg width="16" height="16" viewBox="0 0 16 16" fill="none" xmlns="http://www.w3.org/2000/svg">
<path d="M12.6667 2H3.33333C2.59695 2 2 2.59695 2 3.33333V12.6667C2 13.403 2.59695 14 3.33333 14H12.6667C13.403 14 14 13.403 14 12.6667V3.33333C14 2.59695 13.403 2 12.6667 2Z" stroke="#A9B1D6" stroke-width="1.16667" stroke-linecap="round" stroke-linejoin="round"/>
<path d="M6.00001 7.33334C6.73638 7.33334 7.33334 6.73638 7.33334 6.00001C7.33334 5.26363 6.73638 4.66667 6.00001 4.66667C5.26363 4.66667 4.66667 5.26363 4.66667 6.00001C4.66667 6.73638 5.26363 7.33334 6.00001 7.33334Z" stroke="#A9B1D6" stroke-width="1.16667" stroke-linecap="round" stroke-linejoin="round"/>
<path d="M14 10L11.9427 7.94267C11.6926 7.69271 11.3536 7.55229 11 7.55229C10.6464 7.55229 10.3074 7.69271 10.0573 7.94267L4 14" stroke="#A9B1D6" stroke-width="1.16667" stroke-linecap="round" stroke-linejoin="round"/>
</svg>
