<svg width="16" height="16" viewBox="0 0 16 16" fill="none" xmlns="http://www.w3.org/2000/svg">
<path d="M7.32001 2L6.92106 3.26316" stroke="#FF9E64" stroke-width="1.16667" stroke-linecap="round" stroke-linejoin="round"/>
<path d="M9.85001 2L9.44736 3.26316" stroke="#FF9E64" stroke-width="1.16667" stroke-linecap="round" stroke-linejoin="round"/>
<path d="M10.6022 13.2601C10.1284 13.7338 9.48581 14 8.81579 14H5.02632C4.3563 14 3.71372 13.7338 3.23994 13.2601C2.76616 12.7863 2.5 12.1437 2.5 11.4737V6.42105C2.5 6.25355 2.56654 6.0929 2.68499 5.97446C2.80343 5.85602 2.96407 5.78947 3.13158 5.78947H11.9737C12.6437 5.78947 13.2863 6.05564 13.7601 6.52942C14.2338 7.00319 14.5 7.64577 14.5 8.31579C14.5 8.98581 14.2338 9.62839 13.7601 10.1022C13.2863 10.5759 12.6437 10.8421 11.9737 10.8421" stroke="#7AA2F7" stroke-width="1.16667" stroke-linecap="round" stroke-linejoin="round"/>
<path d="M4.79001 2L4.39474 3.26316" stroke="#FF9E64" stroke-width="1.16667" stroke-linecap="round" stroke-linejoin="round"/>
<path d="M5 10.84H9.5" stroke="#7AA2F7" stroke-width="1.17" stroke-linecap="round"/>
<path d="M5 8.5H9.5" stroke="#7AA2F7" stroke-width="1.17" stroke-linecap="round"/>
</svg>
