<svg width="16" height="16" viewBox="0 0 16 16" fill="none" xmlns="http://www.w3.org/2000/svg">
<path d="M3 6V6.5C3 6.76522 2.89464 7.01957 2.70711 7.20711C2.51957 7.39464 2.26522 7.5 2 7.5H1.5V9H2C2.26522 9 2.51957 9.10536 2.70711 9.29289C2.89464 9.48043 3 9.73478 3 10V10.5C2.99183 10.8962 3.06384 11.29 3.21171 11.6576C3.35958 12.0253 3.58026 12.3593 3.86048 12.6395C4.1407 12.9197 4.47468 13.1404 4.84235 13.2883C5.21002 13.4362 5.60379 13.5082 6 13.5H7V12H6C5.8019 12.0041 5.60501 11.9681 5.42118 11.8941C5.23734 11.8202 5.07035 11.7099 4.93024 11.5698C4.79013 11.4296 4.67979 11.2627 4.60586 11.0788C4.53192 10.895 4.49591 10.6981 4.5 10.5V6C4.49591 5.8019 4.53192 5.60501 4.60586 5.42118C4.67979 5.23734 4.79013 5.07035 4.93024 4.93024C5.07035 4.79013 5.23734 4.67979 5.42118 4.60586C5.60501 4.53192 5.8019 4.49591 6 4.5H7V3H6C5.60379 2.99183 5.21002 3.06384 4.84235 3.21171C4.47468 3.35958 4.1407 3.58026 3.86048 3.86048C3.58026 4.1407 3.35958 4.47468 3.21171 4.84235C3.06384 5.21002 2.99183 5.60379 3 6ZM14 7.5C13.7348 7.5 13.4804 7.39464 13.2929 7.20711C13.1054 7.01957 13 6.76522 13 6.5V6C13.0082 5.60379 12.9362 5.21002 12.7883 4.84235C12.6404 4.47468 12.4197 4.1407 12.1395 3.86048C11.8593 3.58026 11.5253 3.35958 11.1576 3.21171C10.79 3.06384 10.3962 2.99183 10 3H9V4.5H10C10.1981 4.49591 10.395 4.53192 10.5788 4.60586C10.7627 4.67979 10.9296 4.79013 11.0698 4.93024C11.2099 5.07035 11.3202 5.23734 11.3941 5.42118C11.4681 5.60501 11.5041 5.8019 11.5 6V10.5C11.5041 10.6981 11.4681 10.895 11.3941 11.0788C11.3202 11.2627 11.2099 11.4296 11.0698 11.5698C10.9296 11.7099 10.7627 11.8202 10.5788 11.8941C10.395 11.9681 10.1981 12.0041 10 12H9V13.5H10C10.3962 13.5082 10.79 13.4362 11.1576 13.2883C11.5253 13.1404 11.8593 12.9197 12.1395 12.6395C12.4197 12.3593 12.6404 12.0253 12.7883 11.6576C12.9362 11.29 13.0082 10.8962 13 10.5V10C13 9.73478 13.1054 9.48043 13.2929 9.29289C13.4804 9.10536 13.7348 9 14 9H14.5V7.5H14Z" fill="#E0AF68"/>
<path d="M8 9.25C8.55228 9.25 9 8.80228 9 8.25C9 7.69771 8.55228 7.25 8 7.25C7.44772 7.25 7 7.69771 7 8.25C7 8.80228 7.44772 9.25 8 9.25Z" fill="#E0AF68"/>
</svg>
