<svg width="16" height="16" viewBox="0 0 16 16" fill="none" xmlns="http://www.w3.org/2000/svg">
<path d="M12.6667 2H3.33333C2.59695 2 2 2.59695 2 3.33333V12.6667C2 13.403 2.59695 14 3.33333 14H12.6667C13.403 14 14 13.403 14 12.6667V3.33333C14 2.59695 13.403 2 12.6667 2Z" stroke="#A9B1D6" stroke-width="1.16667" stroke-linecap="round" stroke-linejoin="round"/>
<path d="M6.51111 4.65H6.13888C5.94144 4.65 5.75209 4.72843 5.61248 4.86804C5.47287 5.00765 5.39444 5.19701 5.39444 5.39445V7.25556C5.39444 7.453 5.31601 7.64235 5.1764 7.78196C5.03679 7.92157 4.84743 8 4.64999 8C4.84743 8 5.03679 8.07843 5.1764 8.21805C5.31601 8.35766 5.39444 8.54701 5.39444 8.74445V10.6056C5.39444 11.015 5.72944 11.35 6.13888 11.35H6.51111" stroke="#A9B1D6" stroke-width="1.17" stroke-linecap="round" stroke-linejoin="round"/>
<path d="M9.48888 11.35H9.8611C10.0585 11.35 10.2479 11.2716 10.3875 11.132C10.5271 10.9924 10.6055 10.803 10.6055 10.6056V8.74445C10.6055 8.33501 10.9405 8.00001 11.35 8.00001C11.1525 8.00001 10.9632 7.92158 10.8236 7.78197C10.684 7.64236 10.6055 7.453 10.6055 7.25557V5.39445C10.6055 5.19701 10.5271 5.00766 10.3875 4.86805C10.2479 4.72844 10.0585 4.65001 9.8611 4.65001H9.48888" stroke="#A9B1D6" stroke-width="1.17" stroke-linecap="round" stroke-linejoin="round"/>
</svg>
