<svg width="16" height="16" viewBox="0 0 16 16" fill="none" xmlns="http://www.w3.org/2000/svg">
<path d="M9 11C9 11.7956 9.31607 12.5587 9.87868 13.1213C10.4413 13.6839 11.2044 14 12 14C12.7956 14 13.5587 13.6839 14.1213 13.1213C14.6839 12.5587 15 11.7956 15 11C15 10.2044 14.6839 9.44129 14.1213 8.87868C13.5587 8.31607 12.7956 8 12 8C11.2044 8 10.4413 8.31607 9.87868 8.87868C9.31607 9.44129 9 10.2044 9 11Z" fill="#BB9AF7"/>
<path d="M1 11C1 11.394 1.0776 11.7841 1.22836 12.1481C1.37913 12.512 1.6001 12.8427 1.87868 13.1213C2.15726 13.3999 2.48797 13.6209 2.85195 13.7716C3.21593 13.9224 3.60603 14 4 14C4.39397 14 4.78407 13.9224 5.14805 13.7716C5.51203 13.6209 5.84274 13.3999 6.12132 13.1213C6.3999 12.8427 6.62087 12.512 6.77164 12.1481C6.9224 11.7841 7 11.394 7 11C7 10.2044 6.68393 9.44129 6.12132 8.87868C5.55871 8.31607 4.79565 8 4 8C3.20435 8 2.44129 8.31607 1.87868 8.87868C1.31607 9.44129 1 10.2044 1 11Z" fill="#DB4B4B"/>
<path d="M5 4C5 4.79565 5.31607 5.55871 5.87868 6.12132C6.44129 6.68393 7.20435 7 8 7C8.79565 7 9.55871 6.68393 10.1213 6.12132C10.6839 5.55871 11 4.79565 11 4C11 3.20435 10.6839 2.44129 10.1213 1.87868C9.55871 1.31607 8.79565 1 8 1C7.20435 1 6.44129 1.31607 5.87868 1.87868C5.31607 2.44129 5 3.20435 5 4Z" fill="#1ABC9C"/>
</svg>
