<svg width="16" height="16" viewBox="0 0 16 16" fill="none" xmlns="http://www.w3.org/2000/svg">
<path d="M11.8889 7H4.11111C3.49746 7 3 7.56982 3 8.27273V12.7273C3 13.4302 3.49746 14 4.11111 14H11.8889C12.5025 14 13 13.4302 13 12.7273V8.27273C13 7.56982 12.5025 7 11.8889 7Z" stroke="#A9B1D6" stroke-width="1.17" stroke-linecap="round" stroke-linejoin="round"/>
<path d="M4.75 7V4.77778C4.75 4.04107 5.09241 3.33453 5.7019 2.81359C6.3114 2.29266 7.13805 2 8 2C8.86195 2 9.6886 2.29266 10.2981 2.81359C10.9076 3.33453 11.25 4.04107 11.25 4.77778V7" stroke="#A9B1D6" stroke-width="1.17" stroke-linecap="round" stroke-linejoin="round"/>
</svg>
