<svg width="16" height="16" viewBox="0 0 16 16" fill="none" xmlns="http://www.w3.org/2000/svg">
<path d="M4.6579 4.5989C4.6579 4.00791 4.89267 3.44111 5.31057 3.02322C5.72847 2.60532 6.29526 2.37054 6.88626 2.37054H9.11462C9.70562 2.37054 10.2724 2.60532 10.6903 3.02322C11.1082 3.44111 11.343 4.00791 11.343 4.5989V5.71308H4.6579V4.5989Z" stroke="#737AA2" stroke-width="1.67127"/>
<path fill-rule="evenodd" clip-rule="evenodd" d="M2.7081 6.27017C2.7081 5.50138 3.33204 4.87744 4.10082 4.87744H11.9001C12.6689 4.87744 13.2928 5.50138 13.2928 6.27017V12.9552C13.2928 13.724 12.6689 14.348 11.9001 14.348H4.10082C3.33204 14.348 2.7081 13.724 2.7081 12.9552V6.27017ZM8.83609 9.79209C8.97792 9.63127 9.07033 9.43295 9.10223 9.22092C9.13414 9.00888 9.10418 8.79214 9.01596 8.59671C8.92774 8.40128 8.785 8.23546 8.60487 8.11914C8.42474 8.00282 8.21488 7.94095 8.00045 7.94095C7.78603 7.94095 7.57617 8.00282 7.39604 8.11914C7.21591 8.23546 7.07317 8.40128 6.98495 8.59671C6.89673 8.79214 6.86677 9.00888 6.89868 9.22092C6.93058 9.43295 7.02299 9.63127 7.16482 9.79209V11.284C7.16482 11.5056 7.25286 11.7181 7.40957 11.8749C7.56628 12.0316 7.77883 12.1196 8.00045 12.1196C8.22208 12.1196 8.43463 12.0316 8.59134 11.8749C8.74805 11.7181 8.83609 11.5056 8.83609 11.284V9.79209Z" fill="#737AA2"/>
</svg>
