<svg width="16" height="16" viewBox="0 0 16 16" fill="none" xmlns="http://www.w3.org/2000/svg">
<path d="M7.14286 5.85714C7.14286 5.38376 7.52662 5 8 5C8.47338 5 8.85714 5.38376 8.85714 5.85714V7.57143C8.85714 8.04481 8.47338 8.42857 8 8.42857C7.52662 8.42857 7.14286 8.04481 7.14286 7.57143V5.85714Z" fill="#DB4B4B"/>
<path d="M8.85714 10.1429C8.85714 10.6163 8.47338 11 8 11C7.52662 11 7.14286 10.6163 7.14286 10.1429C7.14286 9.66947 7.52662 9.28571 8 9.28571C8.47338 9.28571 8.85714 9.66947 8.85714 10.1429Z" fill="#DB4B4B"/>
<path fill-rule="evenodd" clip-rule="evenodd" d="M9.79 2.29C9.60374 2.10526 9.35234 2.0011 9.09 2H4C3.73478 2 3.48043 2.10536 3.29289 2.29289C3.10536 2.48043 3 2.73478 3 3V13C3 13.2652 3.10536 13.5196 3.29289 13.7071C3.48043 13.8946 3.73478 14 4 14H12C12.2652 14 12.5196 13.8946 12.7071 13.7071C12.8946 13.5196 13 13.2652 13 13V5.91C12.9962 5.64623 12.8884 5.39463 12.7 5.21C12 4.53 10.47 3 9.79 2.29ZM11.5 6.13493C10.8005 5.45045 9.56952 4.21913 8.87291 3.5H4.5V12.5H11.5V6.13493Z" fill="#DB4B4B"/>
</svg>
