<svg width="16" height="16" viewBox="0 0 16 16" fill="none" xmlns="http://www.w3.org/2000/svg">
<path d="M7 4.07C6.01109 4.07 5.04439 4.36325 4.22215 4.91265C3.3999 5.46206 2.75904 6.24295 2.3806 7.15658C2.00216 8.07021 1.90315 9.07555 2.09607 10.0455C2.289 11.0154 2.7652 11.9063 3.46447 12.6055C4.16373 13.3048 5.05464 13.781 6.02455 13.9739C6.99445 14.1669 7.99979 14.0678 8.91342 13.6894C9.82705 13.311 10.6079 12.6701 11.1573 11.8479C11.7068 11.0256 12 10.0589 12 9.07C12 8.41339 11.8707 7.76321 11.6194 7.15658C11.3681 6.54995 10.9998 5.99876 10.5355 5.53447C10.0712 5.07017 9.52004 4.70188 8.91342 4.4506C8.30679 4.19933 7.65661 4.07 7 4.07ZM8.62 9C8.20329 8.96758 7.81414 8.77916 7.53028 8.47236C7.24642 8.16556 7.08874 7.76297 7.08874 7.345C7.08874 6.92703 7.24642 6.52444 7.53028 6.21764C7.81414 5.91084 8.20329 5.72242 8.62 5.69C8.84815 5.67225 9.07751 5.70187 9.29367 5.77699C9.50984 5.85211 9.70813 5.97112 9.8761 6.12653C10.0441 6.28195 10.1781 6.47042 10.2698 6.6801C10.3614 6.88978 10.4087 7.11616 10.4087 7.345C10.4087 7.57384 10.3614 7.80021 10.2698 8.0099C10.1781 8.21958 10.0441 8.40805 9.8761 8.56347C9.70813 8.71888 9.50984 8.83789 9.29367 8.91301C9.07751 8.98813 8.84815 9.01775 8.62 9ZM12.34 2C12.0117 2 11.6907 2.09736 11.4178 2.27976C11.1448 2.46216 10.932 2.72142 10.8064 3.02475C10.6807 3.32807 10.6478 3.66184 10.7119 3.98385C10.7759 4.30586 10.934 4.60164 11.1662 4.8338C11.3984 5.06595 11.6941 5.22405 12.0161 5.2881C12.3382 5.35215 12.6719 5.31928 12.9753 5.19364C13.2786 5.068 13.5378 4.85523 13.7202 4.58225C13.9026 4.30926 14 3.98832 14 3.66C14.0013 3.44163 13.9593 3.22518 13.8763 3.02318C13.7934 2.82118 13.6712 2.63765 13.5168 2.48324C13.3623 2.32883 13.1788 2.20661 12.9768 2.12366C12.7748 2.0407 12.5584 1.99867 12.34 2Z" fill="#7AA2F7"/>
</svg>
