<svg width="16" height="16" viewBox="0 0 16 16" fill="none" xmlns="http://www.w3.org/2000/svg">
<path fill-rule="evenodd" clip-rule="evenodd" d="M7.86429 1.50369C8.2339 1.49084 8.60831 1.51133 8.98389 1.56817C9.37848 1.62789 9.64993 1.99614 9.59021 2.39069C9.53048 2.78523 9.16219 3.05666 8.7676 2.99694C8.48194 2.9537 8.19678 2.93805 7.91449 2.94786C7.51566 2.96172 7.18109 2.64967 7.16723 2.25088C7.15336 1.85207 7.46545 1.51755 7.86429 1.50369ZM5.6998 2.70989C5.9082 3.05019 5.80125 3.49499 5.4609 3.70337C4.96431 4.00741 4.51626 4.3919 4.1406 4.83651C3.88305 5.14134 3.42714 5.17968 3.12229 4.92217C2.81743 4.66465 2.77909 4.20879 3.03663 3.90396C3.51204 3.34129 4.07805 2.85561 4.70621 2.47101C5.04655 2.26263 5.4914 2.36958 5.6998 2.70989ZM2.44721 6.30354C2.83947 6.37702 3.09788 6.75453 3.02439 7.14675C2.97242 7.4241 2.9452 7.70829 2.9452 7.99732C2.9452 8.26734 2.9663 8.53194 3.0068 8.78968C3.06876 9.18387 2.79939 9.55365 2.40515 9.6156C2.01091 9.67755 1.64108 9.40821 1.57913 9.01402C1.527 8.68234 1.5 8.34274 1.5 7.99732C1.5 7.61731 1.53581 7.24404 1.6039 6.88066C1.67739 6.48844 2.05496 6.23005 2.44721 6.30354ZM13.6327 6.47953C14.0284 6.42709 14.3916 6.70525 14.4441 7.10082C14.4935 7.47333 14.5096 7.84357 14.4946 8.20839C14.4784 8.60709 14.1419 8.91712 13.7432 8.90085C13.3445 8.88459 13.0344 8.54818 13.0506 8.14948C13.0622 7.86691 13.0497 7.57994 13.0114 7.29074C12.959 6.89516 13.2371 6.53198 13.6327 6.47953ZM13.2942 10.3586C13.6347 10.5666 13.7422 11.0113 13.5342 11.3518C13.15 11.9808 12.6631 12.5444 12.0951 13.0151C11.7879 13.2697 11.3324 13.227 11.0777 12.9198C10.823 12.6125 10.8657 12.157 11.173 11.9024C11.6173 11.5342 11.9994 11.0923 12.3008 10.5987C12.5088 10.2581 12.9536 10.1506 13.2942 10.3586ZM2.90106 10.8108C3.22374 10.576 3.67569 10.6472 3.91052 10.9699C4.22293 11.399 4.60127 11.7774 5.03054 12.0898C5.35322 12.3245 5.42442 12.7765 5.18958 13.0991C4.95476 13.4217 4.5028 13.4929 4.18013 13.2581C3.62887 12.857 3.14321 12.3714 2.74201 11.8201C2.50718 11.4975 2.57839 11.0456 2.90106 10.8108ZM9.69559 13.5668C9.7648 13.9598 9.50229 14.3345 9.10927 14.4038C8.74999 14.467 8.38052 14.5 8.00339 14.5C7.65794 14.5 7.31831 14.473 6.9866 14.4209C6.59235 14.359 6.32298 13.9891 6.38494 13.5949C6.44689 13.2007 6.81672 12.9315 7.21096 12.9934C7.46872 13.0339 7.73334 13.055 8.00339 13.055C8.29596 13.055 8.58158 13.0293 8.85862 12.9806C9.25165 12.9114 9.62638 13.1738 9.69559 13.5668Z" fill="#7AA2F7"/>
<path d="M12.339 5.10725C13.1371 5.10725 13.7842 4.46028 13.7842 3.66221C13.7842 2.86414 13.1371 2.21717 12.339 2.21717C11.5408 2.21717 10.8938 2.86414 10.8938 3.66221C10.8938 4.46028 11.5408 5.10725 12.339 5.10725Z" fill="#7AA2F7"/>
<path fill-rule="evenodd" clip-rule="evenodd" d="M8.00339 11.8508C10.1318 11.8508 11.8573 10.1255 11.8573 7.99733C11.8573 5.86913 10.1318 4.14389 8.00339 4.14389C5.87496 4.14389 4.14953 5.86913 4.14953 7.99733C4.14953 10.1255 5.87496 11.8508 8.00339 11.8508ZM8.96685 8.47901C9.76502 8.47901 10.4121 7.83204 10.4121 7.03397C10.4121 6.23589 9.76502 5.58893 8.96685 5.58893C8.16869 5.58893 7.52166 6.23589 7.52166 7.03397C7.52166 7.83204 8.16869 8.47901 8.96685 8.47901Z" fill="#7AA2F7"/>
</svg>
