<svg width="16" height="16" viewBox="0 0 16 16" fill="none" xmlns="http://www.w3.org/2000/svg">
<path d="M1.18851 11.8735L4.10301 0.997002L14.979 3.9115L12.065 14.788L1.18851 11.8735Z" fill="#00A2FF"/>
<path d="M10.4965 6.5005L11.079 4.3275L13.252 4.9095L12.67 7.083L10.4965 6.5005ZM3.38499 10.67L4.75999 11.035L4.67499 11.35L2.91499 10.88L3.69499 8L4.07499 8.1L3.38499 10.67ZM6.34999 11.57C6.24817 11.6359 6.13269 11.6778 6.01229 11.6926C5.89188 11.7073 5.7697 11.6944 5.65499 11.655C5.55154 11.6393 5.45292 11.6006 5.36639 11.5418C5.27986 11.4829 5.20762 11.4054 5.15499 11.315C5.07516 11.1091 5.07516 10.8809 5.15499 10.675L5.52999 9.27L5.89999 9.37L5.52499 10.76C5.43499 11.09 5.52499 11.285 5.78999 11.36C5.90198 11.404 6.02493 11.4117 6.14154 11.3821C6.25814 11.3525 6.36253 11.287 6.43999 11.195L6.85999 9.625L7.22499 9.725L6.64999 11.88L6.29999 11.785L6.34999 11.57ZM8.54499 12.385C8.53364 12.3054 8.53364 12.2246 8.54499 12.145C8.44459 12.2096 8.33171 12.2524 8.21368 12.2705C8.09565 12.2886 7.97514 12.2816 7.85999 12.25C7.65921 12.2095 7.48085 12.0954 7.35999 11.93C7.31133 11.8574 7.27898 11.7751 7.26517 11.6888C7.25136 11.6025 7.25642 11.5142 7.27999 11.43C7.30204 11.3276 7.3499 11.2324 7.41903 11.1537C7.48816 11.0749 7.57627 11.0151 7.67499 10.98C7.92493 10.8969 8.19506 10.8969 8.44499 10.98L8.80499 11.075L8.84999 10.905C8.86759 10.8498 8.87357 10.7915 8.86755 10.7338C8.86152 10.6762 8.84363 10.6204 8.81499 10.57C8.78047 10.5156 8.73514 10.4689 8.68181 10.4328C8.62848 10.3967 8.5683 10.3719 8.50499 10.36C8.39011 10.3196 8.26488 10.3196 8.14999 10.36C8.10199 10.3744 8.05844 10.4007 8.02345 10.4366C7.98846 10.4725 7.96318 10.5167 7.94999 10.565L7.57999 10.465C7.61269 10.3529 7.68117 10.2545 7.77499 10.185C7.8846 10.102 8.01375 10.0486 8.14999 10.03C8.30174 10.0065 8.45673 10.015 8.60499 10.055C8.82128 10.0964 9.01308 10.22 9.13999 10.4C9.20499 10.4839 9.24928 10.582 9.26926 10.6862C9.28924 10.7905 9.28435 10.898 9.25499 11L8.98999 12C8.94097 12.1618 8.92398 12.3317 8.93999 12.5V12.53L8.54499 12.385ZM7.99999 11.945C8.11447 11.977 8.23552 11.977 8.34999 11.945C8.46167 11.9191 8.56281 11.8598 8.63999 11.775L8.75999 11.33L8.49999 11.25C8.04999 11.13 7.78499 11.2 7.71499 11.465C7.69914 11.5151 7.69495 11.5682 7.70275 11.6202C7.71055 11.6722 7.73013 11.7217 7.75999 11.765C7.81968 11.8482 7.90345 11.911 7.99999 11.945ZM10.81 12.77C10.7069 12.8352 10.5904 12.8762 10.4691 12.8901C10.3479 12.9039 10.2252 12.8902 10.11 12.85C10.0128 12.8278 9.92151 12.7851 9.84218 12.7247C9.76285 12.6643 9.69733 12.5877 9.64999 12.5C9.57015 12.2941 9.57015 12.0659 9.64999 11.86L10.025 10.46L10.39 10.555L9.99999 11.96C9.90999 12.285 9.99999 12.46 10.265 12.555C10.3762 12.5986 10.4983 12.6061 10.6141 12.5765C10.7298 12.5468 10.8333 12.4816 10.91 12.39L11.33 10.825L11.7 10.925L11.125 13.08L10.77 13L10.81 12.77Z" fill="white"/>
</svg>
