<svg width="16" height="16" viewBox="0 0 16 16" fill="none" xmlns="http://www.w3.org/2000/svg">
<path d="M4 10V6H5L6 7.47059L7 6H8V10H7V7.70588L6 9.17647L5 7.70588V10H4Z" fill="#7DCFFF"/>
<path d="M8.5 8.05882L10.5 10L12.5 8.05882H11.1667V6H9.83333V8.05882H8.5Z" fill="#7DCFFF"/>
<path d="M12.6667 3.5H3.33333C2.59695 3.5 2 4.09695 2 4.83333V11.1667C2 11.903 2.59695 12.5 3.33333 12.5H12.6667C13.403 12.5 14 11.903 14 11.1667V4.83333C14 4.09695 13.403 3.5 12.6667 3.5Z" stroke="#7DCFFF" stroke-width="1.16667" stroke-linecap="round" stroke-linejoin="round"/>
</svg>
