<svg width="16" height="16" viewBox="0 0 16 16" fill="none" xmlns="http://www.w3.org/2000/svg">
<path d="M7.73718 2.65825C7.76309 2.61032 7.80114 2.57035 7.84737 2.54252C7.89361 2.51468 7.94633 2.5 8.00004 2.5C8.05374 2.5 8.10646 2.51468 8.1527 2.54252C8.19893 2.57035 8.23699 2.61032 8.26289 2.65825L10.0344 6.08428C10.0767 6.16361 10.1357 6.23243 10.2071 6.28579C10.2786 6.33915 10.3607 6.37574 10.4477 6.39292C10.5347 6.41011 10.6243 6.40746 10.7101 6.38517C10.796 6.36288 10.8759 6.32151 10.9442 6.26401L13.5109 4.02401C13.5602 3.98319 13.6209 3.95934 13.6844 3.95591C13.7478 3.95247 13.8106 3.96963 13.8639 4.0049C13.9171 4.04018 13.958 4.09176 13.9806 4.15221C14.0033 4.21266 14.0065 4.27887 13.9898 4.3413L12.2891 10.6052C12.2544 10.7334 12.1796 10.8466 12.0761 10.9276C11.9725 11.0085 11.8459 11.0529 11.7154 11.054H4.28529C4.15467 11.053 4.02791 11.0087 3.92425 10.9277C3.8206 10.8468 3.74572 10.7335 3.71098 10.6052L2.01083 4.34192C1.99418 4.27948 1.9974 4.21327 2.02004 4.15282C2.04268 4.09237 2.08356 4.04079 2.1368 4.00552C2.19004 3.97024 2.2529 3.95308 2.31632 3.95652C2.37974 3.95995 2.44046 3.9838 2.48973 4.02462L5.05584 6.26463C5.12414 6.32212 5.20408 6.36349 5.28993 6.38578C5.37578 6.40807 5.46541 6.41072 5.55238 6.39354C5.63936 6.37635 5.72152 6.33977 5.79297 6.2864C5.86442 6.23304 5.92338 6.16422 5.96563 6.08489L7.73718 2.65825Z" stroke="#E0AF68" stroke-width="1.17" stroke-linecap="round" stroke-linejoin="round"/>
<path d="M3.79919 13.5H12.2009" stroke="#E0AF68" stroke-width="1.17" stroke-linecap="round" stroke-linejoin="round"/>
</svg>
