<svg width="16" height="16" viewBox="0 0 16 16" fill="none" xmlns="http://www.w3.org/2000/svg">
<path d="M6.00005 4.76555L4.76569 2.74995M6.00005 4.76555L3.75 4.76562M6.00005 4.76555L7.25006 4.76559" stroke="#7DCFFF" stroke-width="1.17" stroke-linecap="round"/>
<path d="M6.0323 11.1009L5.03465 13.2436M6.0323 11.1009L7.27585 12.9761M6.0323 11.1009L5.34151 10.0592" stroke="#7DCFFF" stroke-width="1.17" stroke-linecap="round"/>
<path d="M11.883 8.19023L14.2466 8.19286M11.883 8.19023L13.0602 6.27267M11.883 8.19023L11.229 9.25547" stroke="#7DCFFF" stroke-width="1.17" stroke-linecap="round"/>
<path d="M10.0232 11.2311L11.2675 13.2406M10.0232 11.2311L12.2732 11.2199M10.0232 11.2311L8.77319 11.2373" stroke="#7AA2F7" stroke-width="1.17" stroke-linecap="round"/>
<path d="M9.99026 4.91552L10.9985 2.77782M9.99026 4.91552L8.756 3.0342M9.99026 4.91552L10.6759 5.96071" stroke="#7AA2F7" stroke-width="1.17" stroke-linecap="round"/>
<path d="M4.12354 7.83561L1.76003 7.84466M4.12354 7.83561L2.95585 9.75895M4.12354 7.83561L4.7723 6.76714" stroke="#7AA2F7" stroke-width="1.17" stroke-linecap="round"/>
</svg>
