<svg width="16" height="16" viewBox="0 0 16 16" fill="none" xmlns="http://www.w3.org/2000/svg">
<path d="M7.95693 12.0261C7.92089 11.9493 7.81142 11.7494 7.75645 11.6853C7.63708 11.5456 7.6092 11.535 7.5741 11.3587C7.51308 11.0515 7.35155 10.4945 7.16119 10.1101C7.06287 9.91176 6.89938 9.74513 6.7497 9.60126C6.61903 9.47506 6.32454 9.26272 6.27318 9.27324C5.79219 9.36928 5.64298 9.84101 5.41674 10.2147C5.29156 10.4214 5.15893 10.5972 5.0603 10.8171C4.9692 11.0193 4.97729 11.2432 4.82133 11.4169C4.66137 11.5951 4.55739 11.7847 4.47902 12.015C4.46418 12.0588 4.42193 12.5189 4.37607 12.6274L5.09092 12.5771C5.75709 12.6224 5.56469 12.8777 6.60442 12.8221L8.24616 12.7713C8.19527 12.6209 8.12514 12.4466 8.09813 12.39C8.05235 12.2947 7.99478 12.1081 7.95693 12.0261Z" fill="#F7768E"/>
<path d="M10.0381 8.62655C9.91191 8.71765 9.66525 8.93675 9.12874 9.01959C8.88797 9.05682 8.66275 9.05988 8.41554 9.04755C8.29452 9.04174 8.18042 9.03554 8.05909 9.03397C7.98763 9.03342 7.74788 9.0258 7.75974 9.04873L7.73304 9.11532C7.7372 9.13723 7.74592 9.19197 7.74835 9.20524C7.75817 9.25903 7.76091 9.30183 7.76296 9.3513C7.76665 9.453 7.75455 9.55901 7.75974 9.66165C7.7705 9.87455 7.8495 10.0686 7.85947 10.2834C7.87039 10.5225 7.98865 10.7755 8.10307 10.9708C8.14649 11.0452 8.21262 11.0537 8.24144 11.1452C8.2752 11.2501 8.24324 11.3614 8.25966 11.4732C8.32405 11.9068 8.44891 12.36 8.64414 12.7513C8.64555 12.7546 8.64704 12.7581 8.64877 12.7611C8.88985 12.7206 9.13141 12.6339 9.44466 12.5876C10.019 12.5024 10.8178 12.5463 11.3309 12.4982C12.6293 12.3762 13.3339 13.0307 14.5 12.7625V3.1379C14.5 2.23339 13.767 1.50001 12.8623 1.50001H3.13781C2.23338 1.50001 1.50008 2.23339 1.50008 3.1379V6.71154C1.73441 6.6268 2.07146 6.12822 2.17708 6.00697C2.36186 5.79494 2.39539 5.52448 2.48743 5.35415C2.69702 4.96622 2.73307 4.69945 3.20951 4.69945C3.43159 4.69945 3.51978 4.75066 3.67 4.95224C3.77452 5.09242 3.95506 5.35141 4.03956 5.52456C4.1371 5.72434 4.29604 5.99464 4.36593 6.04922C4.41768 6.08974 4.46904 6.12013 4.51694 6.13811C4.59422 6.16709 4.65814 6.11393 4.70981 6.07278C4.77578 6.02024 4.8042 5.91321 4.8653 5.77044C4.95333 5.56446 5.04929 5.31764 5.10387 5.23149C5.19834 5.0826 5.23054 4.90591 5.33255 4.82031C5.48301 4.69411 5.67934 4.68524 5.73336 4.67456C6.03562 4.61488 6.17305 4.82023 6.32194 4.95303C6.4194 5.04004 6.55258 5.21531 6.64713 5.4502C6.72103 5.63364 6.81511 5.80334 6.85445 5.90928C6.89246 6.01152 6.9863 6.17542 7.0419 6.3719C7.09239 6.55031 7.22754 6.68704 7.2789 6.77185C7.2789 6.77185 7.35751 6.99204 7.83552 7.19331C7.93918 7.23698 8.14869 7.30797 8.27371 7.35344C8.48142 7.4289 8.68261 7.41909 8.93878 7.38838C9.12144 7.38838 9.22039 7.12389 9.30339 6.9121C9.35247 6.78692 9.39951 6.4282 9.43155 6.32635C9.46257 6.22724 9.39001 6.1506 9.45181 6.06375C9.52406 5.96237 9.56701 5.95687 9.60871 5.8247C9.69832 5.54168 10.2162 5.52739 10.5073 5.52739C10.75 5.52739 10.7191 5.76298 11.1308 5.68241C11.3665 5.63615 11.5937 5.7128 11.844 5.77908C12.0547 5.83499 12.2529 5.89868 12.3716 6.03767C12.4484 6.12767 12.6391 6.57859 12.4448 6.59783C12.4635 6.62068 12.4772 6.6619 12.5121 6.68452C12.4688 6.85462 12.2805 6.73345 12.1759 6.71161C12.035 6.6824 11.9355 6.71601 11.7976 6.77703C11.5618 6.88202 11.217 6.86977 11.0116 7.04081C10.8374 7.18578 10.8377 7.5094 10.7564 7.69072C10.7564 7.69072 10.5307 8.27137 10.0381 8.62655Z" fill="#F7768E"/>
<path d="M4.59013 9.45119C4.47799 9.4398 4.37386 9.427 4.26494 9.40501C4.06155 9.36402 3.83931 9.32405 3.63899 9.27607C3.51734 9.24662 3.11213 9.10314 3.0241 9.0627C2.81765 8.96752 2.68053 8.70893 2.51916 8.73555C2.41612 8.75235 2.31576 8.78769 2.25168 8.89158C2.19938 8.97632 2.18164 9.12199 2.14543 9.21968C2.10342 9.33308 2.03086 9.43894 1.96733 9.54699C1.85048 9.7452 1.64018 9.92448 1.54955 10.1176C1.53133 10.1573 1.51516 10.2018 1.5 10.2481V10.9889V12.2706V12.4558C1.6057 12.4739 1.71627 12.4961 1.84003 12.5291C2.75341 12.7728 2.97628 12.7935 3.87214 12.691L3.95617 12.6798C4.02472 12.5372 4.07765 12.0513 4.1221 11.9009C4.15673 11.7856 4.20432 11.6938 4.22238 11.576C4.23942 11.4642 4.22081 11.3576 4.21123 11.256C4.1861 11.0014 4.39664 10.9105 4.49715 10.6919C4.58778 10.4941 4.64008 10.269 4.71507 10.0668C4.78701 9.87273 4.8993 9.59851 5.09084 9.50082C5.06759 9.47372 4.69073 9.46124 4.59013 9.45119Z" fill="#F7768E"/>
</svg>
