<svg width="16" height="16" viewBox="0 0 16 16" fill="none" xmlns="http://www.w3.org/2000/svg">
<path d="M8.55412 12.8712L8.40649 12.8415C7.35791 12.6259 6.6953 11.9249 6.38168 10.8223C6.18547 10.1349 6.54121 9.62911 7.19325 9.59586C7.727 9.56828 8.09272 9.90765 8.41573 10.3023C8.83237 10.8109 9.21409 11.3545 9.62325 11.8711C10.2123 12.6145 10.9065 13.0933 11.8561 12.9455C12.7075 12.8131 13.4499 12.4355 14.0954 11.8136C14.1924 11.7202 14.2989 11.6386 14.4014 11.5516L14.5 11.424L14.3368 11.4676C13.7947 11.6542 13.242 11.7163 12.677 11.685C11.8224 11.6376 11.0079 11.44 10.2792 10.9216C9.61429 10.4482 9.12383 9.81389 8.89093 8.96674C8.70264 8.28215 9.08758 7.80343 9.72964 7.90238C9.98309 7.94164 10.1965 8.06785 10.3884 8.24663C10.5443 8.39263 10.6941 8.54674 10.8532 8.6882C11.6023 9.35365 12.6488 9.39064 13.599 8.66809C12.0364 8.6603 10.9731 7.70982 10.0393 6.50562C9.67388 6.03436 9.31711 5.55482 8.94391 5.09069C8.22201 4.1931 7.42131 3.40241 6.32518 3.1323C4.92395 2.78806 3.57173 3.01355 2.27382 3.67024C2.01509 3.80116 1.76663 3.95381 1.49997 4.1991C1.63205 4.1991 1.70396 4.20072 1.77587 4.1991C2.43041 4.18012 2.92087 4.50149 3.27455 5.09329C3.53196 5.524 3.65318 6.011 3.74564 6.51195C3.88286 7.25559 3.81168 8.01335 3.89108 8.76056C4.09463 10.6808 4.98251 12.0208 6.63557 12.707C7.24197 12.9588 7.86363 13.0425 8.55398 12.8709L8.55412 12.8712ZM4.37581 4.11101C4.11473 4.18369 3.90605 4.06721 3.69105 3.82663C4.05941 3.72524 4.38433 3.68582 4.73346 3.67041C4.70484 3.92121 4.571 4.0565 4.37611 4.11101H4.37581Z" fill="#F7768E"/>
</svg>
