<svg width="16" height="16" viewBox="0 0 16 16" fill="none" xmlns="http://www.w3.org/2000/svg">
<path d="M8.51538 12.5783L8.37818 12.5505C7.40374 12.3491 6.78799 11.694 6.49654 10.6636C6.3142 10.0213 6.64479 9.54857 7.25072 9.51749C7.74674 9.49172 8.0866 9.80886 8.38677 10.1777C8.77395 10.653 9.12868 11.161 9.5089 11.6437C10.0563 12.3385 10.7014 12.7858 11.5839 12.6477C12.3751 12.524 13.065 12.1711 13.6648 11.59C13.755 11.5027 13.854 11.4264 13.9492 11.3452L14.0408 11.2259L13.8892 11.2666C13.3854 11.441 12.8718 11.4991 12.3467 11.4698C11.5526 11.4255 10.7957 11.2409 10.1185 10.7564C9.50059 10.314 9.0448 9.72124 8.82837 8.92958C8.65339 8.28983 9.01112 7.84246 9.60778 7.93494C9.84331 7.97162 10.0416 8.08957 10.22 8.25663C10.3648 8.39307 10.5041 8.53709 10.6519 8.66929C11.348 9.29115 12.3205 9.32571 13.2036 8.65049C11.7514 8.64321 10.7633 7.75499 9.89554 6.62966C9.55596 6.18926 9.22442 5.74113 8.8776 5.3074C8.20675 4.4686 7.46266 3.7297 6.44404 3.47729C5.14188 3.15559 3.88528 3.36632 2.67913 3.98C2.43869 4.10234 2.2078 4.24499 1.96 4.47421C2.08274 4.47421 2.14957 4.47573 2.21639 4.47421C2.82465 4.45647 3.28043 4.75679 3.60911 5.30983C3.84832 5.71233 3.96097 6.16743 4.04689 6.63557C4.1744 7.33051 4.10826 8.03863 4.18204 8.7369C4.3712 10.5314 5.1963 11.7836 6.73248 12.4249C7.296 12.6602 7.87385 12.7387 8.51538 12.5783ZM4.6325 4.39189C4.38988 4.45981 4.19595 4.35096 3.99615 4.12614C4.33847 4.03139 4.64041 3.99455 4.96486 3.98015C4.93827 4.21452 4.81361 4.34096 4.6325 4.39189Z" fill="#DB4B4B"/>
</svg>
