<svg width="16" height="16" viewBox="0 0 16 16" fill="none" xmlns="http://www.w3.org/2000/svg">
<path d="M7.33333 6.66668C7.33333 7.37392 7.61428 8.0522 8.11438 8.5523C8.61448 9.05239 9.29276 9.33334 10 9.33334C10.3536 9.33334 10.6928 9.47382 10.9428 9.72387C11.1929 9.97392 11.3333 10.3131 11.3333 10.6667C11.3333 11.0203 11.1929 11.3594 10.9428 11.6095C10.6928 11.8595 10.3536 12 10 12C9.35686 11.9967 8.72134 11.8605 8.13333 11.6C7.8 11.4667 7.53333 11.6 7.46667 12L7.4 12.6667L6.8 13.2667C6.53333 13.5333 6.6 13.8667 6.93333 14.0667C7.86667 14.4667 8.93333 14.6667 10 14.6667C12.2 14.6667 14 12.8667 14 10.6667V5.33334C14 4.6261 13.719 3.94782 13.219 3.44773C12.7189 2.94763 12.0406 2.66668 11.3333 2.66668H8.26667C7.8 1.86668 6.93333 1.33334 6 1.33334H4C2.86667 1.33334 2 2.20001 2 3.33334V4.00001C2 5.23769 2.49167 6.42467 3.36683 7.29984C4.242 8.17501 5.42899 8.66668 6.66667 8.66668H8.26667" stroke="#7AA2F7" stroke-width="1.16667" stroke-linecap="round" stroke-linejoin="round"/>
<path d="M10.3333 6.66666H10" stroke="#7AA2F7" stroke-width="1.16667" stroke-linecap="round" stroke-linejoin="round"/>
</svg>
