<svg width="16" height="16" viewBox="0 0 16 16" fill="none" xmlns="http://www.w3.org/2000/svg">
<path d="M4.76552 5.94097H2.48555L1.5 11.5H2.67059L2.91712 10.059H4.02621C5.07325 10.1275 6.24441 9.16667 6.24441 7.51957C6.24441 6.55871 5.75106 6.00947 4.76552 5.94097ZM3.90266 9.02967H3.16307L3.47109 6.97096H4.27217C4.70317 6.97096 5.01176 7.17709 5.01176 7.58871C4.95027 8.75569 4.45721 8.96118 3.90266 9.02967ZM8.89302 5.94129L7.78393 5.94097L8.03046 4.5H6.85987L5.87433 10.059H7.04491L7.59946 6.97097H8.52352C8.95509 6.97097 8.95509 7.17709 8.89302 7.52021L8.46203 10.0597H9.6941L10.1251 7.24559C10.2481 6.55935 9.87857 6.00979 8.89302 5.94129ZM13.0211 5.94097H10.7411L9.75559 11.5H10.9262L11.1727 10.059H12.2818C13.3294 10.1275 14.5 9.16667 14.5 7.51957C14.5 6.55871 14.0067 6.00947 13.0211 5.94097ZM12.1583 9.02967H11.4187L11.7267 6.97096H12.5278C12.9593 6.97096 13.2673 7.17709 13.2673 7.58871C13.2059 8.75569 12.7128 8.96118 12.1583 9.02967Z" fill="#7AA2F7"/>
</svg>
