<svg width="16" height="16" viewBox="0 0 16 16" fill="none" xmlns="http://www.w3.org/2000/svg">
<path d="M6 12.9091H2.57143C2.41988 12.9091 2.27453 12.9666 2.16737 13.0688C2.0602 13.1711 2 13.3099 2 13.4545C2 13.5992 2.0602 13.7379 2.16737 13.8402C2.27453 13.9425 2.41988 14 2.57143 14H6C6.15155 14 6.2969 13.9425 6.40406 13.8402C6.51122 13.7379 6.57143 13.5992 6.57143 13.4545C6.57143 13.3099 6.51122 13.1711 6.40406 13.0688C6.2969 12.9666 6.15155 12.9091 6 12.9091Z" fill="#BB9AF7"/>
<path d="M6 10.7273H2.57143C2.41988 10.7273 2.27453 10.7848 2.16737 10.8871C2.0602 10.9893 2 11.1281 2 11.2727C2 11.4174 2.0602 11.5562 2.16737 11.6584C2.27453 11.7607 2.41988 11.8182 2.57143 11.8182H6C6.15155 11.8182 6.2969 11.7607 6.40406 11.6584C6.51122 11.5562 6.57143 11.4174 6.57143 11.2727C6.57143 11.1281 6.51122 10.9893 6.40406 10.8871C6.2969 10.7848 6.15155 10.7273 6 10.7273Z" fill="#E0AF68"/>
<path d="M11.1429 8.54547H2.57143C2.41988 8.54547 2.27453 8.60294 2.16737 8.70523C2.0602 8.80752 2 8.94626 2 9.09093C2 9.23559 2.0602 9.37433 2.16737 9.47662C2.27453 9.57891 2.41988 9.63638 2.57143 9.63638H11.1429C11.2944 9.63638 11.4398 9.57891 11.5469 9.47662C11.6541 9.37433 11.7143 9.23559 11.7143 9.09093C11.7143 8.94626 11.6541 8.80752 11.5469 8.70523C11.4398 8.60294 11.2944 8.54547 11.1429 8.54547Z" fill="#BB9AF7"/>
<path d="M13.4286 6.36362H9.99999C9.84843 6.36362 9.70309 6.42108 9.59593 6.52338C9.48876 6.62567 9.42856 6.76441 9.42856 6.90907C9.42856 7.05373 9.48876 7.19247 9.59593 7.29477C9.70309 7.39706 9.84843 7.45453 9.99999 7.45453H13.4286C13.5801 7.45453 13.7255 7.39706 13.8326 7.29477C13.9398 7.19247 14 7.05373 14 6.90907C14 6.76441 13.9398 6.62567 13.8326 6.52338C13.7255 6.42108 13.5801 6.36362 13.4286 6.36362Z" fill="#DB4B4B"/>
<path d="M13.4286 4.18182H9.99999C9.84843 4.18182 9.70309 4.23929 9.59593 4.34158C9.48876 4.44388 9.42856 4.58261 9.42856 4.72728C9.42856 4.87194 9.48876 5.01068 9.59593 5.11297C9.70309 5.21527 9.84843 5.27273 9.99999 5.27273H13.4286C13.5801 5.27273 13.7255 5.21527 13.8326 5.11297C13.9398 5.01068 14 4.87194 14 4.72728C14 4.58261 13.9398 4.44388 13.8326 4.34158C13.7255 4.23929 13.5801 4.18182 13.4286 4.18182Z" fill="#E0AF68"/>
<path d="M6 6.36362H2.57143C2.41988 6.36362 2.27453 6.42108 2.16737 6.52338C2.0602 6.62567 2 6.76441 2 6.90907C2 7.05373 2.0602 7.19247 2.16737 7.29477C2.27453 7.39706 2.41988 7.45453 2.57143 7.45453H6C6.15155 7.45453 6.2969 7.39706 6.40406 7.29477C6.51122 7.19247 6.57143 7.05373 6.57143 6.90907C6.57143 6.76441 6.51122 6.62567 6.40406 6.52338C6.2969 6.42108 6.15155 6.36362 6 6.36362Z" fill="#1ABC9C"/>
<path d="M6 4.18182H2.57143C2.41988 4.18182 2.27453 4.23929 2.16737 4.34158C2.0602 4.44388 2 4.58261 2 4.72728C2 4.87194 2.0602 5.01068 2.16737 5.11297C2.27453 5.21527 2.41988 5.27273 2.57143 5.27273H6C6.15155 5.27273 6.2969 5.21527 6.40406 5.11297C6.51122 5.01068 6.57143 4.87194 6.57143 4.72728C6.57143 4.58261 6.51122 4.44388 6.40406 4.34158C6.2969 4.23929 6.15155 4.18182 6 4.18182Z" fill="#DB4B4B"/>
<path d="M11.1429 2H2.57143C2.41988 2 2.27453 2.05747 2.16737 2.15976C2.0602 2.26205 2 2.40079 2 2.54545C2 2.69012 2.0602 2.82886 2.16737 2.93115C2.27453 3.03344 2.41988 3.09091 2.57143 3.09091H11.1429C11.2944 3.09091 11.4398 3.03344 11.5469 2.93115C11.6541 2.82886 11.7143 2.69012 11.7143 2.54545C11.7143 2.40079 11.6541 2.26205 11.5469 2.15976C11.4398 2.05747 11.2944 2 11.1429 2Z" fill="#1ABC9C"/>
</svg>
