<svg width="16" height="16" viewBox="0 0 16 16" fill="none" xmlns="http://www.w3.org/2000/svg">
<path d="M6.5 13H3.5C3.36739 13 3.24021 13.0527 3.14645 13.1464C3.05268 13.2402 3 13.3674 3 13.5C3 13.6326 3.05268 13.7598 3.14645 13.8536C3.24021 13.9473 3.36739 14 3.5 14H6.5C6.63261 14 6.75979 13.9473 6.85355 13.8536C6.94732 13.7598 7 13.6326 7 13.5C7 13.3674 6.94732 13.2402 6.85355 13.1464C6.75979 13.0527 6.63261 13 6.5 13Z" fill="#F7768E"/>
<path d="M6.5 11H3.5C3.36739 11 3.24021 11.0527 3.14645 11.1464C3.05268 11.2402 3 11.3674 3 11.5C3 11.6326 3.05268 11.7598 3.14645 11.8536C3.24021 11.9473 3.36739 12 3.5 12H6.5C6.63261 12 6.75979 11.9473 6.85355 11.8536C6.94732 11.7598 7 11.6326 7 11.5C7 11.3674 6.94732 11.2402 6.85355 11.1464C6.75979 11.0527 6.63261 11 6.5 11Z" fill="#E0AF68"/>
<path d="M11 9H3.5C3.36739 9 3.24021 9.05268 3.14645 9.14645C3.05268 9.24021 3 9.36739 3 9.5C3 9.63261 3.05268 9.75979 3.14645 9.85355C3.24021 9.94732 3.36739 10 3.5 10H11C11.1326 10 11.2598 9.94732 11.3536 9.85355C11.4473 9.75979 11.5 9.63261 11.5 9.5C11.5 9.36739 11.4473 9.24021 11.3536 9.14645C11.2598 9.05268 11.1326 9 11 9Z" fill="#F7768E"/>
<path d="M13 7H10C9.86739 7 9.74021 7.05268 9.64645 7.14645C9.55268 7.24021 9.5 7.36739 9.5 7.5C9.5 7.63261 9.55268 7.75979 9.64645 7.85355C9.74021 7.94732 9.86739 8 10 8H13C13.1326 8 13.2598 7.94732 13.3536 7.85355C13.4473 7.75979 13.5 7.63261 13.5 7.5C13.5 7.36739 13.4473 7.24021 13.3536 7.14645C13.2598 7.05268 13.1326 7 13 7Z" fill="#DB4B4B"/>
<path d="M13 5H10C9.86739 5 9.74021 5.05268 9.64645 5.14645C9.55268 5.24021 9.5 5.36739 9.5 5.5C9.5 5.63261 9.55268 5.75979 9.64645 5.85355C9.74021 5.94732 9.86739 6 10 6H13C13.1326 6 13.2598 5.94732 13.3536 5.85355C13.4473 5.75979 13.5 5.63261 13.5 5.5C13.5 5.36739 13.4473 5.24021 13.3536 5.14645C13.2598 5.05268 13.1326 5 13 5Z" fill="#E0AF68"/>
<path d="M6.5 7H3.5C3.36739 7 3.24021 7.05268 3.14645 7.14645C3.05268 7.24021 3 7.36739 3 7.5C3 7.63261 3.05268 7.75979 3.14645 7.85355C3.24021 7.94732 3.36739 8 3.5 8H6.5C6.63261 8 6.75979 7.94732 6.85355 7.85355C6.94732 7.75979 7 7.63261 7 7.5C7 7.36739 6.94732 7.24021 6.85355 7.14645C6.75979 7.05268 6.63261 7 6.5 7Z" fill="#0DB9D7"/>
<path d="M6.5 5H3.5C3.36739 5 3.24021 5.05268 3.14645 5.14645C3.05268 5.24021 3 5.36739 3 5.5C3 5.63261 3.05268 5.75979 3.14645 5.85355C3.24021 5.94732 3.36739 6 3.5 6H6.5C6.63261 6 6.75979 5.94732 6.85355 5.85355C6.94732 5.75979 7 5.63261 7 5.5C7 5.36739 6.94732 5.24021 6.85355 5.14645C6.75979 5.05268 6.63261 5 6.5 5Z" fill="#DB4B4B"/>
<path d="M11 3H3.5C3.36739 3 3.24021 3.05268 3.14645 3.14645C3.05268 3.24021 3 3.36739 3 3.5C3 3.63261 3.05268 3.75979 3.14645 3.85355C3.24021 3.94732 3.36739 4 3.5 4H11C11.1326 4 11.2598 3.94732 11.3536 3.85355C11.4473 3.75979 11.5 3.63261 11.5 3.5C11.5 3.36739 11.4473 3.24021 11.3536 3.14645C11.2598 3.05268 11.1326 3 11 3Z" fill="#0DB9D7"/>
</svg>
