<svg width="16" height="16" viewBox="0 0 16 16" fill="none" xmlns="http://www.w3.org/2000/svg">
<path d="M2.30079 10.9279C2.22954 10.8863 2.16763 10.8305 2.11893 10.7639C2.07024 10.6973 2.03581 10.6213 2.01779 10.5408C1.99977 10.4603 1.99856 10.3769 2.01422 10.2959C2.02988 10.2149 2.06208 10.138 2.10881 10.07L7.50821 2.25887C7.5635 2.17966 7.6371 2.11498 7.72274 2.07031C7.80839 2.02564 7.90356 2.00232 8.00016 2.00232C8.09675 2.00232 8.19192 2.02564 8.27757 2.07031C8.36322 2.11498 8.43681 2.17966 8.4921 2.25887L13.8915 10.064C13.9392 10.1322 13.9723 10.2096 13.9885 10.2912C14.0047 10.3728 14.0037 10.457 13.9857 10.5382C13.9676 10.6195 13.9329 10.6961 13.8836 10.7632C13.8343 10.8303 13.7716 10.8864 13.6995 10.9279L7 14C6.81903 14.1031 6.61434 14.1573 6.40607 14.1573C6.19779 14.1573 5.9931 14.1031 5.81213 14L2.30079 10.9279Z" stroke="#7DCFFF" stroke-width="1.17" stroke-linecap="round" stroke-linejoin="round"/>
<path d="M8.00017 2.00073L6.5 14" stroke="#7DCFFF" stroke-width="1.17" stroke-linecap="round" stroke-linejoin="round"/>
</svg>
