<svg width="16" height="16" viewBox="0 0 16 16" fill="none" xmlns="http://www.w3.org/2000/svg">
<path d="M10 10V13.1429C10 13.6162 9.61624 14 9.14286 14H4.85714C4.38376 14 4 13.6162 4 13.1429V10" stroke="#E0AF68" stroke-width="1.17" stroke-linecap="round" stroke-linejoin="round"/>
<path d="M11 5V1.85714C11 1.38376 10.6162 1 10.1429 1H5.85714C5.38376 1 5 1.38376 5 1.85714V5" stroke="#7AA2F7" stroke-width="1.17" stroke-linecap="round" stroke-linejoin="round"/>
<path d="M8 5C8 5 5.6802 5.00001 5.28571 5.00001H1.71429C1.3198 5.00001 1 5.31981 1 5.7143V9.28573C1 9.68022 1.3198 10 1.71429 10H4V8.85714C4 8.38376 4.38376 8 4.85714 8H6.5" stroke="#7AA2F7" stroke-width="1.17" stroke-linecap="round" stroke-linejoin="round"/>
<path d="M7 10H13.2857C13.6802 10 14 9.6802 14 9.28571V5.71429C14 5.3198 13.6802 5 13.2857 5H11L11 6.14285C11 6.61624 10.6162 7 10.1429 7H8.5" stroke="#E0AF68" stroke-width="1.17" stroke-linecap="round" stroke-linejoin="round"/>
</svg>
