<svg width="16" height="16" viewBox="0 0 16 16" fill="none" xmlns="http://www.w3.org/2000/svg">
<path d="M7.09326 13.5C6.82095 13.5 6.6002 13.2762 6.6002 13V5.62497C6.6002 5.34883 6.82095 5.12497 7.09326 5.12497H10.2156C10.9077 5.12497 11.4983 5.23811 11.9876 5.46439C12.4797 5.68793 12.8541 6.00554 13.1107 6.41721C13.3702 6.82615 13.5 7.30733 13.5 7.86076C13.5 8.4169 13.3688 8.89536 13.1063 9.29611C12.8436 9.69415 12.4634 9.99951 11.9652 10.2121C11.47 10.4247 10.8705 10.5311 10.1665 10.5311H8.23876C7.96645 10.5311 7.74569 10.3072 7.74569 10.0311V9.60801C7.74569 9.33186 7.96645 9.10801 8.23874 9.10801H9.85324C10.2232 9.10801 10.5304 9.06166 10.7749 8.96897C11.0196 8.87628 11.2015 8.73723 11.3208 8.55185C11.4431 8.36647 11.5043 8.1361 11.5043 7.86076C11.5043 7.58267 11.4431 7.34822 11.3208 7.15739C11.2015 6.96654 11.018 6.82205 10.7704 6.72391C10.5259 6.62304 10.2172 6.5726 9.8442 6.5726H9.03075C8.75844 6.5726 8.53769 6.79646 8.53769 7.0726V13C8.53769 13.2762 8.31694 13.5 8.04463 13.5H7.09326ZM11.2714 9.6887C11.4437 9.6887 11.6036 9.78003 11.6929 9.92951L13.373 12.7408C13.5721 13.074 13.3355 13.5 12.9513 13.5H11.9686C11.7945 13.5 11.6333 13.4069 11.5446 13.255L9.90091 10.4437C9.70599 10.1103 9.94293 9.6887 10.3249 9.6887H11.2714Z" fill="#7AA2F7"/>
<path d="M10.8916 3.38129C9.91816 2.82658 8.72474 2.5 7.43527 2.5C4.15731 2.5 1.5 4.61041 1.5 7.21372C1.5 9.02134 2.78117 10.5913 4.66169 11.3821" stroke="#C0CAF5" stroke-width="1.47918" stroke-linecap="round"/>
</svg>
