<svg width="16" height="16" viewBox="0 0 16 16" fill="none" xmlns="http://www.w3.org/2000/svg">
<circle cx="8" cy="8" r="1" fill="#7DCFFF"/>
<path d="M4.41301 9.97593C3.92123 11.6358 4.00174 12.9552 4.75 13.3709C5.49887 13.7817 6.73732 13.1864 8 11.948M4.41301 9.97593C2.65788 9.55249 1.5 8.8267 1.5 8C1.5 7.17315 2.65833 6.44723 4.41404 6.02383M4.41301 9.97593C4.93936 10.1029 5.51943 10.2027 6.13809 10.2699M4.41301 9.97593C4.56697 9.45624 4.77704 8.90318 5.04028 8.33402M8 11.948C9.26267 13.1864 10.5011 13.7817 11.25 13.3709C11.9988 12.9549 12.0789 11.6373 11.586 9.97618M8 11.948C8.37061 11.5845 8.7433 11.1656 9.10632 10.7004M8 11.948C7.62938 11.5845 7.25669 11.1656 6.89367 10.7004M11.586 9.97618C13.3417 9.55278 14.5 8.82686 14.5 8C14.5 7.17331 13.3421 6.44751 11.587 6.02408M11.586 9.97618C11.432 9.45744 11.2222 8.90519 10.9594 8.33642M11.586 9.97618C11.0599 10.103 10.4802 10.2027 9.86191 10.2699M11.587 6.02408C12.0788 4.3642 11.9982 3.04483 11.25 2.62906C10.5011 2.21829 9.26267 2.81357 8 4.05202M11.587 6.02408C11.0606 5.89709 10.4805 5.79729 9.86187 5.73013M11.587 6.02408C11.433 6.54376 11.223 7.09682 10.9597 7.66597M8 4.05202C6.73732 2.81357 5.49887 2.21829 4.75 2.62906C4.00122 3.04512 3.92111 4.36268 4.41404 6.02383M8 4.05202C7.62937 4.41553 7.25666 4.83446 6.89363 5.29962M8 4.05202C8.37062 4.41553 8.74333 4.83445 9.10636 5.29961M4.41404 6.02383C4.94013 5.89696 5.51986 5.79725 6.13813 5.73013M4.41404 6.02383C4.56797 6.54257 4.77778 7.09483 5.04056 7.6636M6.13813 5.73013C6.36512 5.55257 6.61931 5.40676 6.89363 5.29962M6.13813 5.73013C5.54139 6.19694 5.13269 6.88325 5.04056 7.6636M6.89363 5.29962C7.23569 5.16601 7.60905 5.09252 8 5.09252C8.39095 5.09252 8.7643 5.16601 9.10636 5.29961M9.10636 5.29961C9.38069 5.40676 9.63488 5.55257 9.86187 5.73013M9.86187 5.73013C10.4592 6.19742 10.8681 6.88464 10.9597 7.66597M10.9597 7.66597C10.9726 7.77558 10.9792 7.88705 10.9792 8.00002C10.9792 8.1138 10.9725 8.22605 10.9594 8.33642M10.9594 8.33642C10.8673 9.11676 10.4586 9.80305 9.86191 10.2699M9.86191 10.2699C9.6349 10.4475 9.38068 10.5933 9.10632 10.7004M9.10632 10.7004C8.76428 10.834 8.39093 10.9075 8 10.9075C7.60906 10.9075 7.23572 10.834 6.89367 10.7004M6.89367 10.7004C6.61931 10.5933 6.36509 10.4475 6.13809 10.2699M6.13809 10.2699C5.54075 9.80258 5.13184 9.11535 5.04028 8.33402M5.04028 8.33402C5.02743 8.22442 5.02083 8.11297 5.02083 8.00002C5.02083 7.88623 5.02753 7.77397 5.04056 7.6636" stroke="#7DCFFF" stroke-width="1.17" stroke-linecap="round" stroke-linejoin="round"/>
</svg>
