<svg width="16" height="16" viewBox="0 0 16 16" fill="none" xmlns="http://www.w3.org/2000/svg">
<path d="M8.05815 7.38492L12.1366 8.02844C12.3704 8.06532 12.5198 7.78697 12.3599 7.61255L7.30438 2.09814C7.13335 1.91159 6.82521 2.06811 6.87498 2.31624L7.85199 7.18714C7.87256 7.28971 7.95482 7.36862 8.05815 7.38492Z" fill="#BB9AF7"/>
<g opacity="0.8">
<path d="M5.51497 2.02703L1.92042 1.95068C1.69543 1.9459 1.57917 2.21757 1.73796 2.37703L6.24865 6.90681C6.42388 7.08278 6.72071 6.92327 6.67067 6.68003L5.75454 2.2266C5.73103 2.11232 5.63161 2.0295 5.51497 2.02703Z" fill="#C7A9FF"/>
<path d="M9.0952 10.9797L11.3824 9.35081C11.564 9.22151 11.4983 8.93722 11.2785 8.90058L8.496 8.43683C8.31974 8.40746 8.17047 8.56712 8.21162 8.74101L8.70689 10.8337C8.74777 11.0064 8.95062 11.0827 9.0952 10.9797Z" fill="#C7A9FF"/>
</g>
<path d="M5.10282 13.9632L7.59108 12.4532C7.68331 12.3972 7.72923 12.2884 7.70498 12.1832L6.75736 8.07483C6.699 7.82179 6.34133 7.81447 6.27266 8.0649L4.73201 13.6834C4.67223 13.9014 4.90954 14.0805 5.10282 13.9632Z" fill="#BB9AF7"/>
<path d="M11.3183 4.89351L13.1588 7.03149L15.535 6.14302C15.7099 6.07761 15.754 5.85043 15.6161 5.72438L13.7222 3.99219L11.4546 4.48614C11.2695 4.52645 11.1947 4.74995 11.3183 4.89351Z" fill="#BB9AF7"/>
</svg>
