<svg width="16" height="16" viewBox="0 0 16 16" fill="none" xmlns="http://www.w3.org/2000/svg">
<path d="M7.35 6C7.83937 6.55164 8.48435 6.94212 9.2 7.12C9.85273 7.22613 10.522 7.09866 11.09 6.76C11.3426 6.65497 11.5657 6.48985 11.74 6.27898C11.9143 6.0681 12.0344 5.81786 12.09 5.55C12.0701 5.30042 11.9796 5.06167 11.8291 4.86158C11.6786 4.6615 11.4743 4.50835 11.24 4.42C9.91322 3.81588 8.43092 3.64108 7 3.92C6.28313 4.03819 5.60063 4.31119 5 4.72C4.74646 4.91354 4.54133 5.16332 4.40077 5.44965C4.26021 5.73598 4.18806 6.05103 4.19 6.37C4.22242 6.70142 4.32151 7.02286 4.48133 7.315C4.64115 7.60715 4.85839 7.86396 5.12 8.07C5.69 8.58 6.39 9 7.12 9.57C7.49458 9.89169 7.79483 10.2909 8 10.74C8.12077 11.014 8.18212 11.3105 8.18 11.61C8.16986 11.9375 8.0695 12.2559 7.89 12.53C7.56818 13 7.10091 13.3514 6.56 13.53C6.08596 13.7026 5.58443 13.7873 5.08 13.78C4.50667 13.7899 3.94432 13.6222 3.47 13.3C3.16691 13.0709 2.94312 12.7527 2.83 12.39C2.72971 12.0292 2.75438 11.645 2.9 11.3C3.1334 10.7695 3.51546 10.318 4 10C4.40542 9.72252 4.85521 9.51623 5.33 9.39C6.20733 9.17185 7.12262 9.15478 8.00748 9.34007C8.89234 9.52535 9.72389 9.9082 10.44 10.46C10.4663 10.4852 10.4873 10.5155 10.5016 10.549C10.5159 10.5825 10.5233 10.6186 10.5233 10.655C10.5233 10.6914 10.5159 10.7275 10.5016 10.761C10.4873 10.7945 10.4663 10.8248 10.44 10.85C10.403 10.8968 10.3515 10.9301 10.2936 10.9445C10.2357 10.959 10.1747 10.9539 10.12 10.93C8.73429 10.3014 7.1615 10.2227 5.72 10.71C5.14377 10.8905 4.65538 11.2791 4.35 11.8C4.35 11.97 4.35 11.87 4.42 11.99C4.63894 12.1172 4.88684 12.186 5.14 12.19C5.42961 12.2317 5.7247 12.2132 6.00686 12.1358C6.28902 12.0583 6.55221 11.9236 6.78 11.74C6.84271 11.6606 6.88317 11.566 6.89723 11.4658C6.91129 11.3657 6.89844 11.2636 6.86 11.17C6.7425 10.8695 6.54964 10.6044 6.3 10.4C5.75 9.89 5.03 9.46 4.35 8.9C3.9706 8.60008 3.65553 8.22679 3.42358 7.80241C3.19164 7.37804 3.04758 6.91128 3 6.43C2.97413 5.92295 3.06016 5.41642 3.25199 4.94634C3.44382 4.47627 3.73675 4.05417 4.11 3.71C4.83752 3.10877 5.69251 2.68127 6.61 2.46C8.40754 1.97726 10.3172 2.1364 12.01 2.91C12.4935 3.14111 12.9151 3.48387 13.24 3.91C13.6071 4.40545 13.7877 5.01451 13.75 5.63C13.6699 6.18246 13.4417 6.70291 13.0895 7.13605C12.7374 7.5692 12.2745 7.89885 11.75 8.09C11.2966 8.30091 10.8057 8.41927 10.3061 8.43815C9.80641 8.45704 9.308 8.37608 8.84 8.2C7.95979 7.83301 7.2471 7.15239 6.84 6.29C6.83068 6.23075 6.84134 6.17009 6.87031 6.11758C6.89928 6.06507 6.94491 6.0237 7 6C7.04482 5.96671 7.09917 5.94874 7.155 5.94874C7.21083 5.94874 7.26518 5.96671 7.31 6H7.35Z" fill="#F7768E"/>
</svg>
