<svg width="16" height="16" viewBox="0 0 16 16" fill="none" xmlns="http://www.w3.org/2000/svg">
<path fill-rule="evenodd" clip-rule="evenodd" d="M6.70771 6.92028C7.81245 7.81859 10.391 7.43549 11.3633 6.98082C13.609 5.93086 14.8442 4.0883 13.3373 2.47607C11.4538 0.460785 5.92098 2.03569 4.36344 3.01795C2.8059 4.00021 1.79177 5.32114 2.03632 7.09935C2.28088 8.87756 4.11904 9.88518 5.67649 10.5118C4.93072 10.7733 3.15019 11.2905 2.52521 12.0275C1.83082 12.8463 2.21334 14.5 3.9199 14.5C6.98059 14.5 7.48942 11.4095 6.97141 10.6388C7.82827 10.305 8.53327 10.1231 9.58271 9.91619C9.85733 9.86206 9.87618 9.5836 9.59612 9.5666C8.88858 9.52365 7.15362 10.0008 6.70771 10.1392C5.39578 9.46179 3.91339 7.92989 4.01032 6.77757C4.11809 5.49623 4.80194 4.82774 6.61975 3.89859C7.97816 3.20424 10.5756 2.69355 11.7254 3.25505C13.3554 4.05098 11.1893 5.56472 10.1951 6.17636C9.4441 6.63835 8.21306 6.66931 7.06566 6.49505C6.79203 6.45349 6.49851 6.75018 6.70771 6.92028ZM5.25994 12.8355C6.0518 12.3208 6.16728 11.3651 5.98744 11.1232C5.36974 11.3432 3.74622 12.235 4.19267 12.8355C4.37253 13.0774 4.84462 13.1055 5.25994 12.8355Z" fill="#BB9AF7"/>
</svg>
