<svg width="16" height="16" viewBox="0 0 16 16" fill="none" xmlns="http://www.w3.org/2000/svg">
<path d="M8 11.22C7.11473 11.239 6.2299 11.1653 5.36 11C4.5132 10.8316 3.70997 10.4913 3 10V12.5C3 13.33 5.24 14 8 14C10.76 14 13 13.33 13 12.5V10C12.286 10.4736 11.483 10.7968 10.64 10.95C9.77187 11.1321 8.88702 11.2226 8 11.22Z" fill="#27A1B9"/>
<path d="M12.81 3.08C12.26 2.52 10.67 2.08 8.7 2.02L8 2H7.3C5.3 2.08 3.74 2.5 3.19 3.06C3.13072 3.11706 3.08339 3.18536 3.05077 3.2609C3.01814 3.33644 3.00089 3.41772 3 3.5V4.5C3 5.33 5.24 6 8 6C10.76 6 13 5.33 13 4.5V3.5C12.993 3.34078 12.925 3.19038 12.81 3.08Z" fill="#27A1B9"/>
<path d="M8 7.22C7.15138 7.23295 6.30365 7.15924 5.47 7C4.58587 6.8428 3.74447 6.50215 3 6V8.5C3 9.33 5.24 10 8 10C10.76 10 13 9.33 13 8.5V6C12.2555 6.50215 11.4141 6.8428 10.53 7C9.69635 7.15924 8.84862 7.23295 8 7.22Z" fill="#27A1B9"/>
</svg>
