<svg width="16" height="16" viewBox="0 0 16 16" fill="none" xmlns="http://www.w3.org/2000/svg">
<path d="M8 5.6C11.0376 5.6 13.5 4.79411 13.5 3.8C13.5 2.80589 11.0376 2 8 2C4.96243 2 2.5 2.80589 2.5 3.8C2.5 4.79411 4.96243 5.6 8 5.6Z" stroke="#A9B1D6" stroke-width="1.17" stroke-linecap="round" stroke-linejoin="round"/>
<path d="M2.5 3.80002V12.2C2.5 12.6774 3.07946 13.1352 4.11091 13.4728C5.14236 13.8104 6.54131 14 8 14C9.45869 14 10.8576 13.8104 11.8891 13.4728C12.9205 13.1352 13.5 12.6774 13.5 12.2V3.80002" stroke="#A9B1D6" stroke-width="1.17" stroke-linecap="round" stroke-linejoin="round"/>
<path d="M2.5 8C2.5 8.47739 3.07946 8.93523 4.11091 9.27279C5.14236 9.61036 6.54131 9.8 8 9.8C9.45869 9.8 10.8576 9.61036 11.8891 9.27279C12.9205 8.93523 13.5 8.47739 13.5 8" stroke="#A9B1D6" stroke-width="1.17" stroke-linecap="round" stroke-linejoin="round"/>
</svg>
