<svg width="16" height="16" viewBox="0 0 16 16" fill="none" xmlns="http://www.w3.org/2000/svg">
<path fill-rule="evenodd" clip-rule="evenodd" d="M12.473 2V8.61957L8.90461 6.41304H7.32088V6.44565L3.64697 8.61957V2L7.32088 4.17391V4.20652H8.79914V4.17391L12.473 2ZM9.2774 9.6087C9.2774 10.281 8.73235 10.8261 8.06 10.8261C7.38766 10.8261 6.84261 10.281 6.84261 9.6087C6.84261 8.93635 7.38766 8.39131 8.06 8.39131C8.73235 8.39131 9.2774 8.93635 9.2774 9.6087ZM8.06 14.5C8.73235 14.5 9.2774 13.955 9.2774 13.2826C9.2774 12.6103 8.73235 12.0652 8.06 12.0652C7.38766 12.0652 6.84261 12.6103 6.84261 13.2826C6.84261 13.955 7.38766 14.5 8.06 14.5Z" fill="#9ECE6A"/>
</svg>
