<svg width="16" height="16" viewBox="0 0 16 16" fill="none" xmlns="http://www.w3.org/2000/svg">
<path d="M7.83993 6.32902C9.25588 5.45024 11.121 5.87791 12.0058 7.28424C12.8905 8.69058 12.4599 10.543 11.044 11.4218L7.62561 13.5433C6.20967 14.4221 4.34456 13.9944 3.45978 12.5881C2.67632 11.3428 2.92422 9.74776 3.97435 8.78864M7.83993 6.32902L6.13073 7.38979M7.83993 6.32902L9.97643 5.00305M8.16007 9.67099C6.74413 10.5498 4.87902 10.1221 3.99424 8.71576C3.10946 7.30942 3.54005 5.45698 4.956 4.57821L8.37439 2.45666C9.79033 1.57789 11.6554 2.00556 12.5402 3.41189C13.3237 4.65717 13.0758 6.25225 12.0256 7.21136M8.16007 9.67099L9.86927 8.61021M8.16007 9.67099L6.02358 10.997" stroke="#F7768E" stroke-width="1.17103" stroke-linecap="round" stroke-linejoin="round"/>
</svg>
