<svg width="16" height="16" viewBox="0 0 16 16" fill="none" xmlns="http://www.w3.org/2000/svg">
<path d="M10.032 11.5058C10.0331 11.5051 10.0341 11.5045 10.0349 11.504L10.035 11.5039L10.041 11.5005L10.0474 11.4965L10.0475 11.4967C10.0938 11.4718 10.1386 11.4471 10.1819 11.4213L10.1885 11.4174L10.1886 11.4176C10.4754 11.2687 10.9105 11.1136 11.3584 11.1501C11.766 11.1834 12.1733 11.3751 12.4785 11.8446C12.4899 11.7415 12.4926 11.6043 12.4778 11.4409C12.4341 10.9587 12.2395 10.2732 11.7007 9.60935L11.6538 9.55587L11.6741 9.48662C11.6768 9.47751 11.6794 9.46857 11.682 9.45978L10.032 11.5058ZM10.032 11.5058L10.0316 11.5054C8.92651 12.0926 7.43014 12.1419 5.91276 11.4898C4.86664 11.0402 3.97358 10.3266 3.3119 9.48363C3.49725 9.59334 3.68874 9.69485 3.88591 9.78726L3.88594 9.78727C5.55253 10.5678 7.24287 10.5186 8.4504 9.77959L8.61331 9.6799L8.46191 9.56347C6.90188 8.36375 5.58429 6.81673 4.54891 5.51395C5.72619 6.48285 7.09402 7.45816 7.66828 7.78045L7.82794 7.57564C7.06989 6.77474 6.35577 5.8799 5.83852 5.19233C5.83818 5.19187 5.83784 5.19142 5.83749 5.19096C6.67001 5.95424 7.44137 6.57559 8.0574 7.04043C8.48661 7.3643 8.84061 7.61233 9.08762 7.77959C9.21113 7.86322 9.30791 7.92667 9.37398 7.96932C9.40702 7.99065 9.43238 8.00678 9.44958 8.01762L9.46918 8.02993L9.47426 8.0331L9.47561 8.03393L9.47598 8.03416L9.47609 8.03423L9.54515 7.92252L9.47606 8.0344L9.48174 8.03753C9.56372 8.08273 9.62264 8.1177 9.668 8.14751L9.80358 8.23659L9.86249 8.08545C9.90929 7.96538 9.95198 7.84094 9.9876 7.71064C10.3318 6.45248 10.0399 5.04897 9.30851 3.8201C11.1661 5.19723 12.1918 7.44231 11.7146 9.34384L10.032 11.5058Z" stroke="#C0CAF5" stroke-width="0.262667"/>
<path d="M12.6667 2H3.33333C2.59695 2 2 2.59695 2 3.33333V12.6667C2 13.403 2.59695 14 3.33333 14H12.6667C13.403 14 14 13.403 14 12.6667V3.33333C14 2.59695 13.403 2 12.6667 2Z" stroke="#F7768E" stroke-width="1.16667" stroke-linecap="round" stroke-linejoin="round"/>
</svg>
