<svg width="16" height="16" viewBox="0 0 16 16" fill="none" xmlns="http://www.w3.org/2000/svg">
<path d="M8.40522 12.198C8.5631 12.1979 8.71941 12.1668 8.86521 12.1063C9.01101 12.0457 9.14344 11.9571 9.25489 11.8453L12.9476 8.14366C13.6232 7.46844 14.0027 6.55264 14.0027 5.59772C14.0027 4.64281 13.6232 3.72701 12.9476 3.05179C12.272 2.37656 11.3558 1.99722 10.4004 1.99722C9.445 1.99722 8.52874 2.37656 7.85318 3.05179L4.15447 6.74865C3.92939 6.97354 3.80291 7.27859 3.80284 7.59669V11.5982C3.80284 11.7573 3.86606 11.9098 3.97859 12.0223C4.09112 12.1348 4.24375 12.198 4.40289 12.198H8.40522Z" stroke="#3D59A1" stroke-width="1.04956" stroke-linecap="round" stroke-linejoin="round"/>
<path d="M10.4034 5.60074L2.00269 13.9972" stroke="#3D59A1" stroke-width="1.04956" stroke-linecap="round" stroke-linejoin="round"/>
<path d="M11.3035 9.79898H6.20304" stroke="#3D59A1" stroke-width="1.04956" stroke-linecap="round" stroke-linejoin="round"/>
</svg>
