<svg width="16" height="16" viewBox="0 0 16 16" fill="none" xmlns="http://www.w3.org/2000/svg">
<path d="M11.7186 8.52779L8.78782 11.4919C8.71604 11.5646 8.63056 11.6223 8.53632 11.6616C8.44209 11.701 8.34097 11.7213 8.23884 11.7213H5.0269L3.57288 13.1773C3.49931 13.2507 3.39962 13.2921 3.29564 13.2922C3.1917 13.2917 3.09216 13.2501 3.01866 13.1766C2.94516 13.1031 2.90364 13.0036 2.90312 12.8996C2.90312 12.7957 2.94469 12.6957 3.01802 12.6224L7.44752 8.19408H11.5794C11.6178 8.19453 11.6553 8.20623 11.6872 8.22774C11.7191 8.24925 11.744 8.27964 11.7588 8.31513C11.7736 8.35063 11.7777 8.38969 11.7705 8.42748C11.7634 8.46527 11.7453 8.50014 11.7186 8.52779ZM11.957 3.41833C9.4411 2.57368 8.88271 2.48624 7.74632 3.62146L7.27576 4.08613C7.23883 4.1225 7.2177 4.17194 7.21694 4.22377V7.31179L9.91284 4.6159C9.98679 4.54447 10.0858 4.50494 10.1887 4.50584C10.2915 4.50673 10.3898 4.54797 10.4625 4.62067C10.5352 4.69338 10.5765 4.79173 10.5774 4.89454C10.5783 4.99736 10.5387 5.09641 10.4673 5.17037L8.23217 7.40982H12.564C12.6 7.40985 12.6353 7.4 12.6661 7.38133C12.6969 7.36265 12.7219 7.33589 12.7385 7.30395C13.4287 5.99188 11.8841 5.53348 11.957 3.41833ZM4.41478 10.1171L6.43268 8.09919V5.38839C6.43224 5.34993 6.42054 5.31245 6.39903 5.28057C6.37751 5.24868 6.34713 5.2238 6.31164 5.20899C6.27614 5.19419 6.23708 5.1901 6.19929 5.19724C6.1615 5.20439 6.12662 5.22245 6.09898 5.24919L4.30969 7.01769C4.23667 7.09036 4.17877 7.17677 4.13933 7.27194C4.09989 7.36711 4.07969 7.46915 4.0799 7.57217V9.97828C4.0802 10.0169 4.09188 10.0547 4.11348 10.0867C4.13509 10.1188 4.16565 10.1438 4.20137 10.1586C4.23709 10.1734 4.27637 10.1774 4.31433 10.17C4.35228 10.1626 4.38722 10.1442 4.41478 10.1171Z" fill="#F7768E"/>
</svg>
