<svg width="16" height="16" viewBox="0 0 16 16" fill="none" xmlns="http://www.w3.org/2000/svg">
<path d="M9.75 7.75V11.35" stroke="#C0CAF5" stroke-width="1.17" stroke-linecap="round" stroke-linejoin="round"/>
<path d="M8 9.5H11.6" stroke="#C0CAF5" stroke-width="1.17" stroke-linecap="round" stroke-linejoin="round"/>
<path d="M12.7 5.5H6.7C6.03726 5.5 5.5 6.03726 5.5 6.7V12.7C5.5 13.3627 6.03726 13.9 6.7 13.9H12.7C13.3627 13.9 13.9 13.3627 13.9 12.7V6.7C13.9 6.03726 13.3627 5.5 12.7 5.5Z" stroke="#C0CAF5" stroke-width="1.17" stroke-linecap="round" stroke-linejoin="round"/>
<path d="M3.2 10.4C2.54 10.4 2 9.86 2 9.2V3.2C2 2.54 2.54 2 3.2 2H9.2C9.86 2 10.4 2.54 10.4 3.2" stroke="#A9B1D6" stroke-width="1.17" stroke-linecap="round" stroke-linejoin="round"/>
</svg>
