<svg width="16" height="16" viewBox="0 0 16 16" fill="none" xmlns="http://www.w3.org/2000/svg">
<path fill-rule="evenodd" clip-rule="evenodd" d="M2 2.03405C2 1.61828 2.44685 1.36247 2.79607 1.57832L5.04695 2.96956C5.2034 3.06627 5.29892 3.23903 5.29892 3.42529V6.25558C5.29892 6.67134 4.85207 6.92715 4.50285 6.71131L2.25197 5.32007C2.09552 5.22336 2 5.0506 2 4.86434V2.03405Z" fill="#BB9AF7"/>
<path fill-rule="evenodd" clip-rule="evenodd" d="M6.31931 9.74434C6.31931 9.32859 6.76616 9.07277 7.11537 9.28862L9.36625 10.6799C9.5227 10.7766 9.61823 10.9494 9.61823 11.1356V13.9659C9.61823 14.3817 9.17138 14.6375 8.82216 14.4217L6.57127 13.0304C6.41482 12.9337 6.31931 12.7609 6.31931 12.5746V9.74434Z" fill="#BB9AF7"/>
<path fill-rule="evenodd" clip-rule="evenodd" d="M6.31931 4.58039C6.31931 4.16464 6.76616 3.90883 7.11537 4.12468L9.36625 5.51592C9.5227 5.61261 9.61823 5.78538 9.61823 5.97165V8.80194C9.61823 9.2177 9.17138 9.47351 8.82216 9.25767L6.57127 7.86641C6.41482 7.76972 6.31931 7.59696 6.31931 7.4107V4.58039Z" fill="#BB9AF7"/>
<path fill-rule="evenodd" clip-rule="evenodd" d="M14 4.58039C14 4.16464 13.5531 3.90883 13.2039 4.12468L10.953 5.51592C10.7966 5.61261 10.701 5.78538 10.701 5.97165V8.80194C10.701 9.2177 11.1479 9.47351 11.4971 9.25767L13.7479 7.86641C13.9044 7.76972 14 7.59696 14 7.4107V4.58039Z" fill="#BB9AF7"/>
</svg>
