<svg width="16" height="16" viewBox="0 0 16 16" fill="none" xmlns="http://www.w3.org/2000/svg">
<path d="M5 6.30508V5H11V6.30508H8.75V12H7.25V6.30508H5Z" fill="#C0CAF5"/>
<path d="M5.00001 2.41667H3.33334C2.27479 2.41667 1.41667 3.27479 1.41667 4.33334V11.6667C1.41667 12.7252 2.27479 13.5833 3.33334 13.5833H5.00001V12.4167H3.33334C2.91912 12.4167 2.58334 12.0809 2.58334 11.6667V4.33334C2.58334 3.91912 2.91912 3.58334 3.33334 3.58334H5.00001V2.41667Z" fill="#F7768E"/>
<path d="M11 12.4167V13.5833H12.6657C13.7243 13.5833 14.5833 12.7252 14.5833 11.6667V4.33334C14.5833 3.27479 13.7252 2.41667 12.6667 2.41667H11V3.58334H12.6667C13.0809 3.58334 13.4167 3.91912 13.4167 4.33334V11.6667C13.4167 12.0809 13.0809 12.4167 12.6667 12.4167H11Z" fill="#F7768E"/>
</svg>
