<svg width="16" height="16" viewBox="0 0 16 16" fill="none" xmlns="http://www.w3.org/2000/svg">
<path d="M12.6667 2H3.33333C2.59695 2 2 2.59695 2 3.33333V12.6667C2 13.403 2.59695 14 3.33333 14H12.6667C13.403 14 14 13.403 14 12.6667V3.33333C14 2.59695 13.403 2 12.6667 2Z" stroke="#7AA2F7" stroke-width="1.16667" stroke-linecap="round" stroke-linejoin="round"/>
<path fill-rule="evenodd" clip-rule="evenodd" d="M4.25 8.41773V7.56H8.14528V8.41773H6.65596V12.4344H5.63932V8.41773H4.25Z" fill="#7AA2F7"/>
<path fill-rule="evenodd" clip-rule="evenodd" d="M11.1651 8.51901C11.3134 8.62511 11.3974 8.77396 11.4169 8.96557H12.4315C12.4267 8.67578 12.3468 8.42083 12.192 8.20072C12.0372 7.9806 11.8203 7.80879 11.5416 7.68527C11.2645 7.56176 10.9401 7.5 10.5685 7.5C10.2034 7.5 9.87738 7.56176 9.5905 7.68527C9.30362 7.80879 9.07787 7.9806 8.91324 8.20072C8.75024 8.42083 8.66955 8.67816 8.67119 8.97269C8.66955 9.33216 8.79099 9.61799 9.03549 9.83018C9.27999 10.0424 9.61332 10.1984 10.0355 10.2981L10.5807 10.4312C10.7632 10.4739 10.9173 10.5214 11.0428 10.5737C11.17 10.6259 11.2661 10.6893 11.3313 10.7637C11.3981 10.8381 11.4316 10.9299 11.4316 11.0392C11.4316 11.1564 11.3949 11.2601 11.3215 11.3504C11.2482 11.4406 11.1447 11.5111 11.011 11.5618C10.879 11.6125 10.7233 11.6378 10.5441 11.6378C10.3615 11.6378 10.1977 11.6109 10.0526 11.5571C9.90916 11.5016 9.79425 11.42 9.70786 11.3124C9.6231 11.2031 9.57501 11.0669 9.56361 10.9038H8.53915C8.5473 11.2538 8.63451 11.5476 8.80077 11.7851C8.96866 12.021 9.20174 12.1992 9.50003 12.3195C9.79995 12.4399 10.152 12.5 10.5562 12.5C10.9637 12.5 11.3118 12.4406 11.6003 12.3219C11.8904 12.2015 12.1121 12.0329 12.2653 11.8159C12.4202 11.5974 12.4984 11.3393 12.5 11.0416C12.4984 10.8389 12.4601 10.6592 12.3851 10.5024C12.3118 10.3456 12.2083 10.2094 12.0746 10.0938C11.9409 9.97825 11.7829 9.88086 11.6003 9.80168C11.4178 9.7225 11.2173 9.65916 10.9988 9.61165L10.549 9.50714C10.4397 9.48339 10.3371 9.45488 10.2409 9.42163C10.1447 9.38679 10.0599 9.34641 9.98659 9.30049C9.91324 9.25298 9.85538 9.19676 9.81299 9.13184C9.77224 9.06692 9.7535 8.9909 9.75676 8.90381C9.75676 8.79929 9.78773 8.70587 9.84967 8.62353C9.91324 8.54118 10.0045 8.47704 10.1235 8.43113C10.2425 8.38361 10.3884 8.35986 10.5611 8.35986C10.8154 8.35986 11.0168 8.41291 11.1651 8.51901Z" fill="#7AA2F7"/>
</svg>
