<svg width="16" height="16" viewBox="0 0 16 16" fill="none" xmlns="http://www.w3.org/2000/svg">
<path d="M5.551 4.38L2.517 4.055C2.46463 4.04942 2.41171 4.05773 2.36357 4.07908C2.31543 4.10044 2.27375 4.13409 2.24274 4.17666C2.21173 4.21922 2.19247 4.26921 2.18689 4.32158C2.18132 4.37395 2.18964 4.42686 2.211 4.475L5.789 12.525C5.85179 12.6662 5.95415 12.7863 6.0837 12.8705C6.21325 12.9548 6.36444 12.9998 6.519 13H9.686C9.71967 13 9.75279 12.9915 9.7823 12.9753C9.81181 12.9591 9.83674 12.9356 9.85479 12.9072C9.87284 12.8788 9.88342 12.8463 9.88556 12.8127C9.88769 12.7791 9.88131 12.7455 9.867 12.715L6.191 4.838C6.13284 4.71298 6.04335 4.60511 5.93121 4.52486C5.81908 4.44462 5.6881 4.39472 5.551 4.38Z" fill="#7AA2F7"/>
<path fill-rule="evenodd" clip-rule="evenodd" d="M6.627 12.16C6.658 12.351 6.745 12.53 6.874 12.672C6.84054 12.6261 6.81205 12.5769 6.789 12.525L6.627 12.16ZM10.372 11.653L13.769 4.488C13.7918 4.43962 13.8013 4.386 13.7964 4.33272C13.7916 4.27944 13.7726 4.22843 13.7413 4.18497C13.7101 4.14152 13.6679 4.1072 13.6189 4.08558C13.57 4.06396 13.5161 4.05582 13.463 4.062L10.698 4.379C10.5656 4.39417 10.4391 4.44218 10.3299 4.51867C10.2208 4.59516 10.1324 4.69771 10.073 4.817L8.581 7.816L10.372 11.653Z" fill="#3D59A1"/>
</svg>
