<svg width="16" height="16" viewBox="0 0 16 16" fill="none" xmlns="http://www.w3.org/2000/svg">
<path d="M5.26795 3.36515L1.87143 3.00189C1.81281 2.99565 1.75357 3.00493 1.69967 3.0288C1.64577 3.05267 1.59912 3.09029 1.5644 3.13786C1.52968 3.18544 1.50812 3.24131 1.50188 3.29985C1.49565 3.35838 1.50495 3.41753 1.52887 3.47134L5.53439 12.4691C5.60468 12.6269 5.71927 12.7611 5.8643 12.8553C6.00933 12.9495 6.17859 12.9998 6.35162 13H9.89703C9.93472 13 9.9718 12.9905 10.0048 12.9724C10.0379 12.9542 10.0658 12.9281 10.086 12.8963C10.1062 12.8645 10.118 12.8282 10.1204 12.7906C10.1228 12.7531 10.1157 12.7155 10.0997 12.6814L5.98443 3.87707C5.91931 3.73733 5.81913 3.61676 5.6936 3.52706C5.56806 3.43737 5.42144 3.3816 5.26795 3.36515Z" fill="#7AA2F7"/>
<path fill-rule="evenodd" clip-rule="evenodd" d="M6.47253 12.0611C6.50724 12.2746 6.60463 12.4747 6.74905 12.6334C6.71159 12.5822 6.6797 12.5271 6.65389 12.4691L6.47253 12.0611ZM10.665 11.4944L14.4679 3.48589C14.4935 3.43181 14.5041 3.37188 14.4986 3.31233C14.4932 3.25277 14.4719 3.19576 14.4369 3.14719C14.402 3.09862 14.3547 3.06026 14.2999 3.03609C14.2451 3.01192 14.1848 3.00283 14.1253 3.00974L11.03 3.36406C10.8817 3.38101 10.7401 3.43467 10.6179 3.52017C10.4957 3.60567 10.3968 3.72029 10.3303 3.85363L8.66001 7.20571L10.665 11.4944Z" fill="#3D59A1"/>
</svg>
