<svg width="16" height="16" viewBox="0 0 16 16" fill="none" xmlns="http://www.w3.org/2000/svg">
<path d="M6.00001 5V8.75" stroke="#F7768E" stroke-width="1.17" stroke-linecap="round" stroke-linejoin="round"/>
<path d="M10 7.5C10.6904 7.5 11.25 6.94036 11.25 6.25C11.25 5.55964 10.6904 5 10 5C9.30964 5 8.75 5.55964 8.75 6.25C8.75 6.94036 9.30964 7.5 10 7.5Z" stroke="#F7768E" stroke-width="1.17" stroke-linecap="round" stroke-linejoin="round"/>
<path d="M6 11.25C6.69036 11.25 7.25 10.6904 7.25 10C7.25 9.30964 6.69036 8.75 6 8.75C5.30964 8.75 4.75 9.30964 4.75 10C4.75 10.6904 5.30964 11.25 6 11.25Z" stroke="#F7768E" stroke-width="1.17" stroke-linecap="round" stroke-linejoin="round"/>
<path d="M9.99999 7.5C9.99999 8.29565 10.0626 8.93739 9.49999 9.5C8.93738 10.0626 8.29564 10 7.49999 10" stroke="#F7768E" stroke-width="1.17" stroke-linecap="round" stroke-linejoin="round"/>
<path d="M12.6667 2H3.33333C2.59695 2 2 2.59695 2 3.33333V12.6667C2 13.403 2.59695 14 3.33333 14H12.6667C13.403 14 14 13.403 14 12.6667V3.33333C14 2.59695 13.403 2 12.6667 2Z" stroke="#F7768E" stroke-width="1.16667" stroke-linecap="round" stroke-linejoin="round"/>
</svg>
