<svg width="10" height="12" viewBox="0 0 10 12" fill="none" xmlns="http://www.w3.org/2000/svg">
<path d="M9.7 3.21C9 2.53 7.47 1 6.79 0.29C6.60374 0.10526 6.35234 0.0011 6.09 0H1C0.73478 0 0.48043 0.10536 0.29289 0.29289C0.10536 0.48043 0 0.73478 0 1V11C0 11.2652 0.10536 11.5196 0.29289 11.7071C0.48043 11.8946 0.73478 12 1 12H9C9.2652 12 9.5196 11.8946 9.7071 11.7071C9.8946 11.5196 10 11.2652 10 11V3.91C9.9962 3.64623 9.8884 3.39463 9.7 3.21ZM1 11V1H6.09L7.53 2.45L9 3.91V11H1Z" fill="#737AA2" fill-opacity="0.9"/>
<path d="M5.5 2.5H2.5V3.5H5.5V2.5Z" fill="#737AA2" fill-opacity="0.9"/>
<path d="M7 5H2.5V6H7V5Z" fill="#737AA2" fill-opacity="0.9"/>
<path d="M7 7.5H2.5V8.5H7V7.5Z" fill="#737AA2" fill-opacity="0.9"/>
</svg>
