<svg width="16" height="16" viewBox="0 0 16 16" fill="none" xmlns="http://www.w3.org/2000/svg">
<path d="M4.5 3.49149H2.58333C1.98502 3.49149 1.5 4.07096 1.5 4.78578V11.2573C1.5 11.9721 1.98502 12.5516 2.58333 12.5516H3.4L4.425 11.0372H2.7675V5.00581H4.5V3.49149Z" fill="#FF9E64"/>
<path d="M11.5 11.0372H13.2325V5.00581H11.575L12.6 3.49149H13.4167C14.015 3.49149 14.5 4.07096 14.5 4.78578V11.2573C14.5 11.9721 14.015 12.5516 13.4167 12.5516H11.5V11.0372Z" fill="#FF9E64"/>
<rect x="5.29167" y="3.49149" width="5.41667" height="1.51433" fill="#FF9E64"/>
<rect x="5.29167" y="11.0372" width="5.41667" height="1.51433" fill="#FF9E64"/>
<path d="M9.42 7L5.52432 13.05H4.00999L7.90567 7H9.42Z" fill="#FF9E64"/>
<path d="M12 3L8.10432 9.05H6.58999L10.4857 3H12Z" fill="#FF9E64"/>
</svg>
