<svg width="16" height="16" viewBox="0 0 16 16" fill="none" xmlns="http://www.w3.org/2000/svg">
<g clip-path="url(#clip0_4_52)">
<rect x="2.85715" y="2" width="10.2857" height="12" rx="0.857143" stroke="#F4C6FF" stroke-opacity="0.28" stroke-width="0.171429"/>
<path d="M13.1429 2.94286C13.5689 2.94286 13.9143 3.28824 13.9143 3.71429V12.2857C13.9143 12.7118 13.5689 13.0571 13.1429 13.0571H2.85714C2.43109 13.0571 2.08571 12.7118 2.08571 12.2857L2.08571 3.71429C2.08571 3.28824 2.4311 2.94286 2.85714 2.94286L13.1429 2.94286Z" stroke="#F4C6FF" stroke-opacity="0.28" stroke-width="0.171429"/>
<circle cx="8" cy="8" r="6" stroke="#F4C6FF" stroke-opacity="0.28" stroke-width="0.171429"/>
<path d="M3.99999 9.33333L5 7.4C5.10871 7.18409 5.27408 7.0018 5.4784 6.87263C5.68273 6.74346 5.91833 6.67227 6.15999 6.66667H13.3333M13.3333 6.66667C13.537 6.66631 13.7381 6.71262 13.9211 6.80205C14.1041 6.89149 14.2642 7.02166 14.389 7.18258C14.5139 7.3435 14.6003 7.53089 14.6415 7.73037C14.6826 7.92985 14.6776 8.13611 14.6267 8.33333L13.6 12.3333C13.5257 12.621 13.3575 12.8757 13.1219 13.0569C12.8864 13.238 12.5971 13.3353 12.3 13.3333H2.66666C2.31304 13.3333 1.9739 13.1929 1.72385 12.9428C1.4738 12.6928 1.33333 12.3536 1.33333 12V3.33333C1.33333 2.97971 1.4738 2.64057 1.72385 2.39052C1.9739 2.14047 2.31304 2 2.66666 2H5.26666C5.48965 1.99781 5.70963 2.05159 5.90646 2.15641C6.10329 2.26123 6.27069 2.41375 6.39333 2.6L6.93333 3.4C7.05473 3.58435 7.22001 3.73568 7.41433 3.8404C7.60865 3.94512 7.82592 3.99996 8.04666 4H12C12.3536 4 12.6928 4.14047 12.9428 4.39052C13.1929 4.64057 13.3333 4.97971 13.3333 5.33333V6.66667Z" stroke="#A9B1D6" stroke-width="1.16667" stroke-linecap="round" stroke-linejoin="round"/>
</g>
<defs>
<clipPath id="clip0_4_52">
<rect width="16" height="16" fill="white"/>
</clipPath>
</defs>
</svg>
