<svg width="16" height="16" viewBox="0 0 16 16" fill="none" xmlns="http://www.w3.org/2000/svg">
<path d="M14 6.04999V12C14 12.2652 13.8946 12.5196 13.7071 12.7071C13.5196 12.8946 13.2652 13 13 13H3.05C2.91453 13.0068 2.7791 12.9859 2.65195 12.9387C2.52479 12.8915 2.40857 12.8189 2.31034 12.7254C2.21212 12.6318 2.13396 12.5193 2.08061 12.3946C2.02726 12.2699 1.99983 12.1356 2 12V4.04999C2 3.78478 2.10536 3.53042 2.29289 3.34289C2.48043 3.15535 2.73478 3.04999 3 3.04999H6.3C6.49633 3.04366 6.69017 3.09529 6.85734 3.19844C7.02451 3.30159 7.1576 3.45168 7.24 3.62999L7.66 4.46999C7.753 4.64729 7.89708 4.79258 8.07358 4.88708C8.25009 4.98157 8.45089 5.0209 8.65 4.99999H13C13.1356 4.99982 13.2699 5.02725 13.3946 5.0806C13.5193 5.13395 13.6318 5.21212 13.7254 5.31034C13.8189 5.40856 13.8915 5.52478 13.9387 5.65194C13.9859 5.77909 14.0068 5.91453 14 6.04999Z" fill="#737AA2" fill-opacity="0.9"/>
</svg>
